<?xml version="1.0" encoding="UTF-8" standalone="no"?><svg xmlns="http://www.w3.org/2000/svg" xmlns:xlink="http://www.w3.org/1999/xlink" contentStyleType="text/css" height="242px" preserveAspectRatio="none" style="width:875px;height:242px;background:#FFFFFF;" version="1.1" viewBox="0 0 875 242" width="875px" zoomAndPan="magnify"><defs/><g><path d="M19.5,7 L181.5,7 A12.5,12.5 0 0 1 194,19.5 L194,34.6094 L7,34.6094 L7,19.5 A12.5,12.5 0 0 1 19.5,7 " fill="#F1F1F1" style="stroke:#F1F1F1;stroke-width:1.0;"/><rect fill="none" height="229.6094" rx="12.5" ry="12.5" style="stroke:#181818;stroke-width:0.5;" width="187" x="7" y="7"/><line style="stroke:#181818;stroke-width:0.5;" x1="7" x2="194" y1="34.6094" y2="34.6094"/><text fill="#000000" font-family="sans-serif" font-size="14" lengthAdjust="spacing" textLength="122" x="39.5" y="26.5332">CFShoppingCenter</text><ellipse cx="45" cy="55.6094" fill="#222222" rx="10" ry="10" style="stroke:none;stroke-width:1.0;"/><g id="CFShoppingCenter.open"><rect fill="#F1F1F1" height="50" rx="12.5" ry="12.5" style="stroke:#181818;stroke-width:0.5;" width="52" x="19" y="119.6094"/><line style="stroke:#181818;stroke-width:0.5;" x1="19" x2="71" y1="147.2188" y2="147.2188"/><text fill="#000000" font-family="sans-serif" font-size="14" lengthAdjust="spacing" textLength="32" x="29" y="139.1426">open</text></g><ellipse cx="45" cy="216.6094" fill="none" rx="10" ry="10" style="stroke:#222222;stroke-width:1.0;"/><ellipse cx="45.5" cy="217.1094" fill="#222222" rx="6" ry="6" style="stroke:none;stroke-width:1.0;"/><!--MD5=[8d10115c73ad0a8e88b33bd34b71e211]
link *start*CFShoppingCenter to open--><g id="link_*start*CFShoppingCenter_open"><path d="M45,65.9194 C45,77.3594 45,97.3294 45,114.1494 " fill="none" id="*start*CFShoppingCenter-to-open" style="stroke:#181818;stroke-width:1.0;"/><polygon fill="#181818" points="45,119.2594,49,110.2594,45,114.2594,41,110.2594,45,119.2594" style="stroke:#181818;stroke-width:1.0;"/><text fill="#000000" font-family="sans-serif" font-size="13" lengthAdjust="spacing" textLength="138" x="46" y="98.1045">[Within operating hours]</text></g><!--MD5=[a296d1a55711a8a8109acbb92000d70a]
link open to *end*CFShoppingCenter--><g id="link_open_*end*CFShoppingCenter"><path d="M45,169.6994 C45,180.1794 45,192.1094 45,201.1794 " fill="none" id="open-to-*end*CFShoppingCenter" style="stroke:#181818;stroke-width:1.0;"/><polygon fill="#181818" points="45,206.4194,49,197.4194,45,201.4194,41,197.4194,45,206.4194" style="stroke:#181818;stroke-width:1.0;"/></g><!--MD5=[57034346470d6dbc31e8ae052be8f7c4]
link open to open--><g id="link_open_open"><path d="M71.2,136.7494 C80.96,136.4894 89,139.1094 89,144.6094 C89,149.0794 83.69,151.6394 76.47,152.3094 " fill="none" id="open-to-open" style="stroke:#181818;stroke-width:1.0;"/><polygon fill="#181818" points="71.2,152.4694,80.3212,156.1847,76.1975,152.3123,80.0699,148.1886,71.2,152.4694" style="stroke:#181818;stroke-width:1.0;"/></g><path d="M242,20 L530.76,20 A12.5,12.5 0 0 1 543.26,32.5 L543.26,47.6094 L229.5,47.6094 L229.5,32.5 A12.5,12.5 0 0 1 242,20 " fill="#F1F1F1" style="stroke:#F1F1F1;stroke-width:1.0;"/><rect fill="none" height="203.6094" rx="12.5" ry="12.5" style="stroke:#181818;stroke-width:0.5;" width="313.76" x="229.5" y="20"/><line style="stroke:#181818;stroke-width:0.5;" x1="229.5" x2="543.26" y1="47.6094" y2="47.6094"/><text fill="#000000" font-family="sans-serif" font-size="14" lengthAdjust="spacing" textLength="43" x="364.88" y="39.5332">Queue</text><g id="Queue.closed"><rect fill="#F1F1F1" height="50" rx="12.5" ry="12.5" style="stroke:#181818;stroke-width:0.5;" width="61" x="300.76" y="59.6094"/><line style="stroke:#181818;stroke-width:0.5;" x1="300.76" x2="361.76" y1="87.2188" y2="87.2188"/><text fill="#000000" font-family="sans-serif" font-size="14" lengthAdjust="spacing" textLength="41" x="310.76" y="79.1426">closed</text></g><g id="Queue.receiving"><rect fill="#F1F1F1" height="50" rx="12.5" ry="12.5" style="stroke:#181818;stroke-width:0.5;" width="77" x="292.76" y="163.6094"/><line style="stroke:#181818;stroke-width:0.5;" x1="292.76" x2="369.76" y1="191.2188" y2="191.2188"/><text fill="#000000" font-family="sans-serif" font-size="14" lengthAdjust="spacing" textLength="57" x="302.76" y="183.1426">receiving</text></g><!--MD5=[e44cc825da3b545ac83f8280131c7927]
link closed to receiving--><g id="link_closed_receiving"><path d="M300.55,94.9394 C273.54,104.9094 240.5,122.4394 254.26,145.6094 C261.8,158.3194 274.7,167.4294 287.8,173.8394 " fill="none" id="closed-to-receiving" style="stroke:#181818;stroke-width:1.0;"/><polygon fill="#181818" points="292.63,176.0894,286.139,168.6821,288.0915,173.9914,282.7822,175.9438,292.63,176.0894" style="stroke:#181818;stroke-width:1.0;"/><text fill="#000000" font-family="sans-serif" font-size="13" lengthAdjust="spacing" textLength="132" x="255.26" y="142.1045">[ShoppingCenter.open]</text></g><!--MD5=[93b4d18729738aa8ef7643860fae8044]
link receiving to receiving--><g id="link_receiving_receiving"><path d="M369.81,178.9494 C380.02,179.4994 387.76,182.7194 387.76,188.6094 C387.76,193.4894 382.45,196.5394 374.83,197.7494 " fill="none" id="receiving-to-receiving" style="stroke:#181818;stroke-width:1.0;"/><polygon fill="#181818" points="369.81,198.2694,379.1738,201.322,374.7835,197.7549,378.3506,193.3645,369.81,198.2694" style="stroke:#181818;stroke-width:1.0;"/><text fill="#000000" font-family="sans-serif" font-size="13" lengthAdjust="spacing" textLength="132" x="393.76" y="194.1045">[ShoppingCenter.open]</text></g><!--MD5=[41122eb9f34baa7f41066b9b90838111]
link receiving to closed--><g id="link_receiving_closed"><path d="M370.13,167.0194 C384.59,156.4394 395.84,142.6094 388.26,127.6094 C383.35,117.8994 375.02,109.8794 366.23,103.5494 " fill="none" id="receiving-to-closed" style="stroke:#181818;stroke-width:1.0;"/><polygon fill="#181818" points="361.88,100.5794,367.0303,108.9743,366.0002,103.412,371.5625,102.382,361.88,100.5794" style="stroke:#181818;stroke-width:1.0;"/><text fill="#000000" font-family="sans-serif" font-size="13" lengthAdjust="spacing" textLength="142" x="391.26" y="142.1045">[ShoppingCenter.closed]</text></g><path d="M591,20 L849.98,20 A12.5,12.5 0 0 1 862.48,32.5 L862.48,47.6094 L578.5,47.6094 L578.5,32.5 A12.5,12.5 0 0 1 591,20 " fill="#F1F1F1" style="stroke:#F1F1F1;stroke-width:1.0;"/><rect fill="none" height="203.6094" rx="12.5" ry="12.5" style="stroke:#181818;stroke-width:0.5;" width="283.98" x="578.5" y="20"/><line style="stroke:#181818;stroke-width:0.5;" x1="578.5" x2="862.48" y1="47.6094" y2="47.6094"/><text fill="#000000" font-family="sans-serif" font-size="14" lengthAdjust="spacing" textLength="86" x="677.49" y="39.5332">CashRegister</text><g id="CashRegister.idle"><rect fill="#F1F1F1" height="50" rx="12.5" ry="12.5" style="stroke:#181818;stroke-width:0.5;" width="50" x="652.48" y="59.6094"/><line style="stroke:#181818;stroke-width:0.5;" x1="652.48" x2="702.48" y1="87.2188" y2="87.2188"/><text fill="#000000" font-family="sans-serif" font-size="14" lengthAdjust="spacing" textLength="22" x="666.48" y="79.1426">idle</text></g><g id="CashRegister.serving"><rect fill="#F1F1F1" height="50" rx="12.5" ry="12.5" style="stroke:#181818;stroke-width:0.5;" width="66" x="644.48" y="163.6094"/><line style="stroke:#181818;stroke-width:0.5;" x1="644.48" x2="710.48" y1="191.2188" y2="191.2188"/><text fill="#000000" font-family="sans-serif" font-size="14" lengthAdjust="spacing" textLength="46" x="654.48" y="183.1426">serving</text></g><!--MD5=[a2e6d52339b301de277190a8ba10c26e]
link idle to serving--><g id="link_idle_serving"><path d="M652.3,93.4894 C625.74,103.2594 589.5,121.5994 603.48,145.6094 C611.43,159.2594 625.64,168.8294 639.51,175.3494 " fill="none" id="idle-to-serving" style="stroke:#181818;stroke-width:1.0;"/><polygon fill="#181818" points="644.19,177.4494,637.6136,170.1178,639.6275,175.4041,634.3412,177.4179,644.19,177.4494" style="stroke:#181818;stroke-width:1.0;"/><text fill="#000000" font-family="sans-serif" font-size="13" lengthAdjust="spacing" textLength="126" x="604.48" y="142.1045">[Queue.customers&gt;1]</text></g><!--MD5=[153233319dcb8a1ff06e4c0e1029153c]
link serving to serving--><g id="link_serving_serving"><path d="M710.84,178.8794 C720.76,179.1694 728.48,182.4094 728.48,188.6094 C728.48,193.6394 723.38,196.7294 716.15,197.8594 " fill="none" id="serving-to-serving" style="stroke:#181818;stroke-width:1.0;"/><polygon fill="#181818" points="710.84,198.3394,720.1586,201.5274,715.8204,197.897,719.4508,193.5588,710.84,198.3394" style="stroke:#181818;stroke-width:1.0;"/><text fill="#000000" font-family="sans-serif" font-size="13" lengthAdjust="spacing" textLength="113" x="734.48" y="194.1045">[customer.items&gt;0]</text></g><!--MD5=[0c67e6ce08e628c516be0da733da7df5]
link serving to idle--><g id="link_serving_idle"><path d="M710.75,169.4394 C726.07,158.4894 739.3,143.5994 731.48,127.6094 C726.19,116.7794 716.61,107.9394 706.97,101.2094 " fill="none" id="serving-to-idle" style="stroke:#181818;stroke-width:1.0;"/><polygon fill="#181818" points="702.55,98.2694,707.8197,106.5899,706.7103,101.0429,712.2573,99.9335,702.55,98.2694" style="stroke:#181818;stroke-width:1.0;"/><text fill="#000000" font-family="sans-serif" font-size="13" lengthAdjust="spacing" textLength="113" x="734.48" y="142.1045">[customer.items=0]</text></g><!--MD5=[5f2abe3a5e88b9ed9f5cfcb9bd157f41]
@startuml

state CFShoppingCenter {
    [*] - -> open : [Within operating hours]
    open - -> [*]
    open- -> open
}


state Queue {
    closed - -> receiving : [ShoppingCenter.open]
    receiving - -> receiving : [ShoppingCenter.open]
    receiving - -> closed : [ShoppingCenter.closed]
}

state CashRegister {
    idle - -> serving : [Queue.customers>1]
    serving - -> serving : [customer.items>0]
    serving - -> idle : [customer.items=0]
}

@enduml

PlantUML version 1.2022.7(Mon Aug 22 19:01:30 CEST 2022)
(GPL source distribution)
Java Runtime: Java(TM) SE Runtime Environment
JVM: Java HotSpot(TM) 64-Bit Server VM
Default Encoding: UTF-8
Language: es
Country: SV
--></g></svg>