<?xml version="1.0" encoding="UTF-8" standalone="no"?><svg xmlns="http://www.w3.org/2000/svg" xmlns:xlink="http://www.w3.org/1999/xlink" contentStyleType="text/css" height="303px" preserveAspectRatio="none" style="width:925px;height:303px;background:#FFFFFF;" version="1.1" viewBox="0 0 925 303" width="925px" zoomAndPan="magnify"><defs/><g><!--MD5=[b887cf1b6732c2da6b2473101c66933d]
class Alumno--><g id="elem_Alumno"><rect codeLine="1" fill="#F1F1F1" height="105.2038" id="Alumno" rx="2.5" ry="2.5" style="stroke:#181818;stroke-width:0.5;" width="340" x="274" y="7"/><ellipse cx="413.75" cy="23" fill="#ADD1B2" rx="11" ry="11" style="stroke:#181818;stroke-width:1.0;"/><path d="M413.2188,29.9219 Q411.4688,29.9219 410.3281,29.1875 Q409.2031,28.4375 408.6406,27.0938 Q408.0938,25.7344 408.0938,23.9375 Q408.0938,21.9063 408.75,20.4531 Q409.4063,19 410.6875,18.2188 Q411.9688,17.4375 413.8438,17.4375 Q414.7344,17.4375 415.4063,17.625 Q416.0781,17.7969 416.7656,18.1406 L415.9531,20.1563 Q415.3281,19.8438 414.7813,19.7188 Q414.25,19.5938 413.7656,19.5938 Q412.5938,19.5938 411.8906,20.125 Q411.1875,20.6563 410.8906,21.6094 Q410.5938,22.5625 410.5938,23.8281 Q410.5938,25.8438 411.3125,26.8125 Q412.0313,27.7656 413.625,27.7656 Q414.2188,27.7656 414.8438,27.6094 Q415.4688,27.4531 416.2969,27.0781 L416.2969,29.2969 Q415.5625,29.6094 414.7656,29.7656 Q413.9844,29.9219 413.2188,29.9219 Z " fill="#000000"/><text fill="#000000" font-family="sans-serif" font-size="14" lengthAdjust="spacing" textLength="52" x="434.25" y="28.432">Alumno</text><line style="stroke:#181818;stroke-width:0.5;" x1="275" x2="613" y1="39" y2="39"/><ellipse cx="285" cy="54.034" fill="none" rx="3" ry="3" style="stroke:#038048;stroke-width:1.0;"/><text fill="#000000" font-family="sans-serif" font-size="14" lengthAdjust="spacing" textLength="275" x="294" y="57.9659">Interacción con Sistemas de Información</text><ellipse cx="285" cy="73.1019" fill="none" rx="3" ry="3" style="stroke:#038048;stroke-width:1.0;"/><text fill="#000000" font-family="sans-serif" font-size="14" lengthAdjust="spacing" textLength="194" x="294" y="77.0339">Manejo de Datos del Alumno</text><ellipse cx="285" cy="92.1698" fill="none" rx="3" ry="3" style="stroke:#038048;stroke-width:1.0;"/><text fill="#000000" font-family="sans-serif" font-size="14" lengthAdjust="spacing" textLength="314" x="294" y="96.1018">Optimización de la Experiencia de Aprendizaje</text><line style="stroke:#181818;stroke-width:0.5;" x1="275" x2="613" y1="104.2038" y2="104.2038"/></g><!--MD5=[d688479ccd88f1b070856883ba3d94e9]
class InteracciónConSistemasDeInformación--><g id="elem_InteracciónConSistemasDeInformación"><rect codeLine="7" fill="#F1F1F1" height="105.2038" id="InteracciónConSistemasDeInformación" rx="2.5" ry="2.5" style="stroke:#181818;stroke-width:0.5;" width="294" x="7" y="191"/><ellipse cx="22" cy="207" fill="#ADD1B2" rx="11" ry="11" style="stroke:#181818;stroke-width:1.0;"/><path d="M21.4688,213.9219 Q19.7188,213.9219 18.5781,213.1875 Q17.4531,212.4375 16.8906,211.0938 Q16.3438,209.7344 16.3438,207.9375 Q16.3438,205.9063 17,204.4531 Q17.6563,203 18.9375,202.2188 Q20.2188,201.4375 22.0938,201.4375 Q22.9844,201.4375 23.6563,201.625 Q24.3281,201.7969 25.0156,202.1406 L24.2031,204.1563 Q23.5781,203.8438 23.0313,203.7188 Q22.5,203.5938 22.0156,203.5938 Q20.8438,203.5938 20.1406,204.125 Q19.4375,204.6563 19.1406,205.6094 Q18.8438,206.5625 18.8438,207.8281 Q18.8438,209.8438 19.5625,210.8125 Q20.2813,211.7656 21.875,211.7656 Q22.4688,211.7656 23.0938,211.6094 Q23.7188,211.4531 24.5469,211.0781 L24.5469,213.2969 Q23.8125,213.6094 23.0156,213.7656 Q22.2344,213.9219 21.4688,213.9219 Z " fill="#000000"/><text fill="#000000" font-family="sans-serif" font-size="14" lengthAdjust="spacing" textLength="262" x="36" y="212.432">InteracciónConSistemasDeInformación</text><line style="stroke:#181818;stroke-width:0.5;" x1="8" x2="300" y1="223" y2="223"/><ellipse cx="18" cy="238.034" fill="none" rx="3" ry="3" style="stroke:#038048;stroke-width:1.0;"/><text fill="#000000" font-family="sans-serif" font-size="14" lengthAdjust="spacing" textLength="206" x="27" y="241.9659">Uso de Plataformas Educativas</text><ellipse cx="18" cy="257.1019" fill="none" rx="3" ry="3" style="stroke:#038048;stroke-width:1.0;"/><text fill="#000000" font-family="sans-serif" font-size="14" lengthAdjust="spacing" textLength="184" x="27" y="261.0339">Acceso a Recursos en Línea</text><ellipse cx="18" cy="276.1698" fill="none" rx="3" ry="3" style="stroke:#038048;stroke-width:1.0;"/><text fill="#000000" font-family="sans-serif" font-size="14" lengthAdjust="spacing" textLength="143" x="27" y="280.1018">Comunicación Digital</text><line style="stroke:#181818;stroke-width:0.5;" x1="8" x2="300" y1="288.2038" y2="288.2038"/></g><!--MD5=[a4586f130843b1ad6b0135a3f13261e8]
class ManejoDeDatosDelAlumno--><g id="elem_ManejoDeDatosDelAlumno"><rect codeLine="13" fill="#F1F1F1" height="105.2038" id="ManejoDeDatosDelAlumno" rx="2.5" ry="2.5" style="stroke:#181818;stroke-width:0.5;" width="216" x="336" y="191"/><ellipse cx="352.8" cy="207" fill="#ADD1B2" rx="11" ry="11" style="stroke:#181818;stroke-width:1.0;"/><path d="M352.2688,213.9219 Q350.5188,213.9219 349.3781,213.1875 Q348.2531,212.4375 347.6906,211.0938 Q347.1438,209.7344 347.1438,207.9375 Q347.1438,205.9063 347.8,204.4531 Q348.4563,203 349.7375,202.2188 Q351.0188,201.4375 352.8938,201.4375 Q353.7844,201.4375 354.4563,201.625 Q355.1281,201.7969 355.8156,202.1406 L355.0031,204.1563 Q354.3781,203.8438 353.8313,203.7188 Q353.3,203.5938 352.8156,203.5938 Q351.6438,203.5938 350.9406,204.125 Q350.2375,204.6563 349.9406,205.6094 Q349.6438,206.5625 349.6438,207.8281 Q349.6438,209.8438 350.3625,210.8125 Q351.0813,211.7656 352.675,211.7656 Q353.2688,211.7656 353.8938,211.6094 Q354.5188,211.4531 355.3469,211.0781 L355.3469,213.2969 Q354.6125,213.6094 353.8156,213.7656 Q353.0344,213.9219 352.2688,213.9219 Z " fill="#000000"/><text fill="#000000" font-family="sans-serif" font-size="14" lengthAdjust="spacing" textLength="180" x="367.2" y="212.432">ManejoDeDatosDelAlumno</text><line style="stroke:#181818;stroke-width:0.5;" x1="337" x2="551" y1="223" y2="223"/><ellipse cx="347" cy="238.034" fill="none" rx="3" ry="3" style="stroke:#038048;stroke-width:1.0;"/><text fill="#000000" font-family="sans-serif" font-size="14" lengthAdjust="spacing" textLength="133" x="356" y="241.9659">Registro Académico</text><ellipse cx="347" cy="257.1019" fill="none" rx="3" ry="3" style="stroke:#038048;stroke-width:1.0;"/><text fill="#000000" font-family="sans-serif" font-size="14" lengthAdjust="spacing" textLength="190" x="356" y="261.0339">Preferencias de Aprendizaje</text><ellipse cx="347" cy="276.1698" fill="none" rx="3" ry="3" style="stroke:#038048;stroke-width:1.0;"/><text fill="#000000" font-family="sans-serif" font-size="14" lengthAdjust="spacing" textLength="188" x="356" y="280.1018">Rendimiento y Evaluaciones</text><line style="stroke:#181818;stroke-width:0.5;" x1="337" x2="551" y1="288.2038" y2="288.2038"/></g><!--MD5=[2d800999f43bbb86358dccfbecd8d69e]
class OptimizaciónDeLaExperienciaDeAprendizaje--><g id="elem_OptimizaciónDeLaExperienciaDeAprendizaje"><rect codeLine="19" fill="#F1F1F1" height="105.2038" id="OptimizaciónDeLaExperienciaDeAprendizaje" rx="2.5" ry="2.5" style="stroke:#181818;stroke-width:0.5;" width="331" x="587.5" y="191"/><ellipse cx="602.5" cy="207" fill="#ADD1B2" rx="11" ry="11" style="stroke:#181818;stroke-width:1.0;"/><path d="M601.9688,213.9219 Q600.2188,213.9219 599.0781,213.1875 Q597.9531,212.4375 597.3906,211.0938 Q596.8438,209.7344 596.8438,207.9375 Q596.8438,205.9063 597.5,204.4531 Q598.1563,203 599.4375,202.2188 Q600.7188,201.4375 602.5938,201.4375 Q603.4844,201.4375 604.1563,201.625 Q604.8281,201.7969 605.5156,202.1406 L604.7031,204.1563 Q604.0781,203.8438 603.5313,203.7188 Q603,203.5938 602.5156,203.5938 Q601.3438,203.5938 600.6406,204.125 Q599.9375,204.6563 599.6406,205.6094 Q599.3438,206.5625 599.3438,207.8281 Q599.3438,209.8438 600.0625,210.8125 Q600.7813,211.7656 602.375,211.7656 Q602.9688,211.7656 603.5938,211.6094 Q604.2188,211.4531 605.0469,211.0781 L605.0469,213.2969 Q604.3125,213.6094 603.5156,213.7656 Q602.7344,213.9219 601.9688,213.9219 Z " fill="#000000"/><text fill="#000000" font-family="sans-serif" font-size="14" lengthAdjust="spacing" textLength="299" x="616.5" y="212.432">OptimizaciónDeLaExperienciaDeAprendizaje</text><line style="stroke:#181818;stroke-width:0.5;" x1="588.5" x2="917.5" y1="223" y2="223"/><ellipse cx="598.5" cy="238.034" fill="none" rx="3" ry="3" style="stroke:#038048;stroke-width:1.0;"/><text fill="#000000" font-family="sans-serif" font-size="14" lengthAdjust="spacing" textLength="215" x="607.5" y="241.9659">Personalización del Aprendizaje</text><ellipse cx="598.5" cy="257.1019" fill="none" rx="3" ry="3" style="stroke:#038048;stroke-width:1.0;"/><text fill="#000000" font-family="sans-serif" font-size="14" lengthAdjust="spacing" textLength="122" x="607.5" y="261.0339">Análisis Predictivo</text><ellipse cx="598.5" cy="276.1698" fill="none" rx="3" ry="3" style="stroke:#038048;stroke-width:1.0;"/><text fill="#000000" font-family="sans-serif" font-size="14" lengthAdjust="spacing" textLength="207" x="607.5" y="280.1018">Recomendaciones Inteligentes</text><line style="stroke:#181818;stroke-width:0.5;" x1="588.5" x2="917.5" y1="288.2038" y2="288.2038"/></g><!--MD5=[78970a5e4a0ef69e2c451048805a5894]
reverse link Alumno to InteracciónConSistemasDeInformación--><g id="link_Alumno_InteracciónConSistemasDeInformación"><path codeLine="25" d="M350.44,119.22 C313.69,142.28 271.86,168.53 236.28,190.86 " fill="none" id="Alumno-backto-InteracciónConSistemasDeInformación" style="stroke:#181818;stroke-width:1.0;"/><polygon fill="#181818" points="361.67,112.17,354.4616,111.9723,351.5066,118.5501,358.715,118.7478,361.67,112.17" style="stroke:#181818;stroke-width:1.0;"/><polygon fill="#000000" points="308.7649,154.5107,317.9885,152.1922,314.8641,147.2135,308.7649,154.5107" style="stroke:#000000;stroke-width:1.0;"/><text fill="#000000" font-family="sans-serif" font-size="13" lengthAdjust="spacing" textLength="62" x="322" y="156.897">Interactúa</text><text fill="#000000" font-family="sans-serif" font-size="13" lengthAdjust="spacing" textLength="7" x="343.673" y="133.9366">1</text><text fill="#000000" font-family="sans-serif" font-size="13" lengthAdjust="spacing" textLength="7" x="240.3584" y="179.1945">1</text></g><!--MD5=[9c5641333e609b1b87de4623b092cc09]
reverse link Alumno to ManejoDeDatosDelAlumno--><g id="link_Alumno_ManejoDeDatosDelAlumno"><path codeLine="26" d="M444,125.22 C444,146.7 444,170.33 444,190.7 " fill="none" id="Alumno-backto-ManejoDeDatosDelAlumno" style="stroke:#181818;stroke-width:1.0;"/><polygon fill="#181818" points="444,112.17,440,118.17,444,124.17,448,118.17,444,112.17" style="stroke:#181818;stroke-width:1.0;"/><polygon fill="#000000" points="449,156.853,451.9389,147.8079,446.0611,147.8079,449,156.853" style="stroke:#000000;stroke-width:1.0;"/><text fill="#000000" font-family="sans-serif" font-size="13" lengthAdjust="spacing" textLength="85" x="458" y="156.897">Se Representa</text><text fill="#000000" font-family="sans-serif" font-size="13" lengthAdjust="spacing" textLength="7" x="436.5516" y="133.9366">1</text><text fill="#000000" font-family="sans-serif" font-size="13" lengthAdjust="spacing" textLength="7" x="436.5078" y="179.012">1</text></g><!--MD5=[105ad7d882803c5080d08eebddc2a83e]
reverse link Alumno to OptimizaciónDeLaExperienciaDeAprendizaje--><g id="link_Alumno_OptimizaciónDeLaExperienciaDeAprendizaje"><path codeLine="27" d="M542.93,118.77 C582.28,141.94 627.17,168.39 665.33,190.86 " fill="none" id="Alumno-backto-OptimizaciónDeLaExperienciaDeAprendizaje" style="stroke:#181818;stroke-width:1.0;"/><polygon fill="#181818" points="531.72,112.17,534.8621,118.6606,542.0619,118.2565,538.9198,111.766,531.72,112.17" style="stroke:#181818;stroke-width:1.0;"/><polygon fill="#000000" points="617.3083,154.3905,611.006,147.2678,608.023,152.3325,617.3083,154.3905" style="stroke:#000000;stroke-width:1.0;"/><text fill="#000000" font-family="sans-serif" font-size="13" lengthAdjust="spacing" textLength="59" x="622" y="156.897">Se Mejora</text><text fill="#000000" font-family="sans-serif" font-size="13" lengthAdjust="spacing" textLength="7" x="535.5107" y="133.9366">1</text><text fill="#000000" font-family="sans-serif" font-size="13" lengthAdjust="spacing" textLength="7" x="645.5092" y="179.1945">1</text></g><!--MD5=[eb785a73499e09365e7f9da345bc73f1]
@startuml
class Alumno {
    +Interacción con Sistemas de Información
    +Manejo de Datos del Alumno
    +Optimización de la Experiencia de Aprendizaje
}

class InteracciónConSistemasDeInformación {
    +Uso de Plataformas Educativas
    +Acceso a Recursos en Línea
    +Comunicación Digital
}

class ManejoDeDatosDelAlumno {
    +Registro Académico
    +Preferencias de Aprendizaje
    +Rendimiento y Evaluaciones
}

class OptimizaciónDeLaExperienciaDeAprendizaje {
    +Personalización del Aprendizaje
    +Análisis Predictivo
    +Recomendaciones Inteligentes
}

Alumno "1" *- - "1" InteracciónConSistemasDeInformación : Interactúa >
Alumno "1" *- - "1" ManejoDeDatosDelAlumno : Se Representa >
Alumno "1" *- - "1" OptimizaciónDeLaExperienciaDeAprendizaje : Se Mejora >

@enduml

PlantUML version 1.2022.7(Mon Aug 22 19:01:30 CEST 2022)
(GPL source distribution)
Java Runtime: OpenJDK Runtime Environment
JVM: OpenJDK 64-Bit Server VM
Default Encoding: UTF-8
Language: es
Country: ES
--></g></svg>