<?xml version="1.0" encoding="UTF-8" standalone="no"?><svg xmlns="http://www.w3.org/2000/svg" xmlns:xlink="http://www.w3.org/1999/xlink" contentStyleType="text/css" height="322px" preserveAspectRatio="none" style="width:974px;height:322px;background:#FFFFFF;" version="1.1" viewBox="0 0 974 322" width="974px" zoomAndPan="magnify"><defs/><g><!--MD5=[b887cf1b6732c2da6b2473101c66933d]
class Alumno--><g id="elem_Alumno"><rect codeLine="1" fill="#F1F1F1" height="124.2717" id="Alumno" rx="2.5" ry="2.5" style="stroke:#181818;stroke-width:0.5;" width="246" x="336.5" y="7"/><ellipse cx="429.25" cy="23" fill="#ADD1B2" rx="11" ry="11" style="stroke:#181818;stroke-width:1.0;"/><path d="M428.7188,29.9219 Q426.9688,29.9219 425.8281,29.1875 Q424.7031,28.4375 424.1406,27.0938 Q423.5938,25.7344 423.5938,23.9375 Q423.5938,21.9063 424.25,20.4531 Q424.9063,19 426.1875,18.2188 Q427.4688,17.4375 429.3438,17.4375 Q430.2344,17.4375 430.9063,17.625 Q431.5781,17.7969 432.2656,18.1406 L431.4531,20.1563 Q430.8281,19.8438 430.2813,19.7188 Q429.75,19.5938 429.2656,19.5938 Q428.0938,19.5938 427.3906,20.125 Q426.6875,20.6563 426.3906,21.6094 Q426.0938,22.5625 426.0938,23.8281 Q426.0938,25.8438 426.8125,26.8125 Q427.5313,27.7656 429.125,27.7656 Q429.7188,27.7656 430.3438,27.6094 Q430.9688,27.4531 431.7969,27.0781 L431.7969,29.2969 Q431.0625,29.6094 430.2656,29.7656 Q429.4844,29.9219 428.7188,29.9219 Z " fill="#000000"/><text fill="#000000" font-family="sans-serif" font-size="14" lengthAdjust="spacing" textLength="52" x="449.75" y="28.432">Alumno</text><line style="stroke:#181818;stroke-width:0.5;" x1="337.5" x2="581.5" y1="39" y2="39"/><ellipse cx="347.5" cy="54.034" fill="none" rx="3" ry="3" style="stroke:#038048;stroke-width:1.0;"/><text fill="#000000" font-family="sans-serif" font-size="14" lengthAdjust="spacing" textLength="132" x="356.5" y="57.9659">Inversión Educativa</text><ellipse cx="347.5" cy="73.1019" fill="none" rx="3" ry="3" style="stroke:#038048;stroke-width:1.0;"/><text fill="#000000" font-family="sans-serif" font-size="14" lengthAdjust="spacing" textLength="183" x="356.5" y="77.0339">Potencial de Empleabilidad</text><ellipse cx="347.5" cy="92.1698" fill="none" rx="3" ry="3" style="stroke:#038048;stroke-width:1.0;"/><text fill="#000000" font-family="sans-serif" font-size="14" lengthAdjust="spacing" textLength="220" x="356.5" y="96.1018">Contribución al Mercado Laboral</text><ellipse cx="347.5" cy="111.2377" fill="none" rx="3" ry="3" style="stroke:#038048;stroke-width:1.0;"/><text fill="#000000" font-family="sans-serif" font-size="14" lengthAdjust="spacing" textLength="156" x="356.5" y="115.1697">Satisfacción del Cliente</text><line style="stroke:#181818;stroke-width:0.5;" x1="337.5" x2="581.5" y1="123.2717" y2="123.2717"/></g><!--MD5=[55de4d7f3c2efbdf93bbb6dd5ee3ddfb]
class InversiónEducativa--><g id="elem_InversiónEducativa"><rect codeLine="8" fill="#F1F1F1" height="105.2038" id="InversiónEducativa" rx="2.5" ry="2.5" style="stroke:#181818;stroke-width:0.5;" width="183" x="7" y="210"/><ellipse cx="32.35" cy="226" fill="#ADD1B2" rx="11" ry="11" style="stroke:#181818;stroke-width:1.0;"/><path d="M31.8188,232.9219 Q30.0688,232.9219 28.9281,232.1875 Q27.8031,231.4375 27.2406,230.0938 Q26.6938,228.7344 26.6938,226.9375 Q26.6938,224.9063 27.35,223.4531 Q28.0063,222 29.2875,221.2188 Q30.5688,220.4375 32.4438,220.4375 Q33.3344,220.4375 34.0063,220.625 Q34.6781,220.7969 35.3656,221.1406 L34.5531,223.1563 Q33.9281,222.8438 33.3813,222.7188 Q32.85,222.5938 32.3656,222.5938 Q31.1938,222.5938 30.4906,223.125 Q29.7875,223.6563 29.4906,224.6094 Q29.1938,225.5625 29.1938,226.8281 Q29.1938,228.8438 29.9125,229.8125 Q30.6313,230.7656 32.225,230.7656 Q32.8188,230.7656 33.4438,230.6094 Q34.0688,230.4531 34.8969,230.0781 L34.8969,232.2969 Q34.1625,232.6094 33.3656,232.7656 Q32.5844,232.9219 31.8188,232.9219 Z " fill="#000000"/><text fill="#000000" font-family="sans-serif" font-size="14" lengthAdjust="spacing" textLength="128" x="48.65" y="231.432">InversiónEducativa</text><line style="stroke:#181818;stroke-width:0.5;" x1="8" x2="189" y1="242" y2="242"/><ellipse cx="18" cy="257.034" fill="none" rx="3" ry="3" style="stroke:#038048;stroke-width:1.0;"/><text fill="#000000" font-family="sans-serif" font-size="14" lengthAdjust="spacing" textLength="157" x="27" y="260.9659">Retorno de la Inversión</text><ellipse cx="18" cy="276.1019" fill="none" rx="3" ry="3" style="stroke:#038048;stroke-width:1.0;"/><text fill="#000000" font-family="sans-serif" font-size="14" lengthAdjust="spacing" textLength="147" x="27" y="280.0339">Costo de la Educación</text><ellipse cx="18" cy="295.1698" fill="none" rx="3" ry="3" style="stroke:#038048;stroke-width:1.0;"/><text fill="#000000" font-family="sans-serif" font-size="14" lengthAdjust="spacing" textLength="157" x="27" y="299.1018">Becas y Financiamiento</text><line style="stroke:#181818;stroke-width:0.5;" x1="8" x2="189" y1="307.2038" y2="307.2038"/></g><!--MD5=[989e43bfb81d4f2ee21bbd63f4d66b00]
class PotencialDeEmpleabilidad--><g id="elem_PotencialDeEmpleabilidad"><rect codeLine="14" fill="#F1F1F1" height="105.2038" id="PotencialDeEmpleabilidad" rx="2.5" ry="2.5" style="stroke:#181818;stroke-width:0.5;" width="208" x="225.5" y="210"/><ellipse cx="240.5" cy="226" fill="#ADD1B2" rx="11" ry="11" style="stroke:#181818;stroke-width:1.0;"/><path d="M239.9688,232.9219 Q238.2188,232.9219 237.0781,232.1875 Q235.9531,231.4375 235.3906,230.0938 Q234.8438,228.7344 234.8438,226.9375 Q234.8438,224.9063 235.5,223.4531 Q236.1563,222 237.4375,221.2188 Q238.7188,220.4375 240.5938,220.4375 Q241.4844,220.4375 242.1563,220.625 Q242.8281,220.7969 243.5156,221.1406 L242.7031,223.1563 Q242.0781,222.8438 241.5313,222.7188 Q241,222.5938 240.5156,222.5938 Q239.3438,222.5938 238.6406,223.125 Q237.9375,223.6563 237.6406,224.6094 Q237.3438,225.5625 237.3438,226.8281 Q237.3438,228.8438 238.0625,229.8125 Q238.7813,230.7656 240.375,230.7656 Q240.9688,230.7656 241.5938,230.6094 Q242.2188,230.4531 243.0469,230.0781 L243.0469,232.2969 Q242.3125,232.6094 241.5156,232.7656 Q240.7344,232.9219 239.9688,232.9219 Z " fill="#000000"/><text fill="#000000" font-family="sans-serif" font-size="14" lengthAdjust="spacing" textLength="176" x="254.5" y="231.432">PotencialDeEmpleabilidad</text><line style="stroke:#181818;stroke-width:0.5;" x1="226.5" x2="432.5" y1="242" y2="242"/><ellipse cx="236.5" cy="257.034" fill="none" rx="3" ry="3" style="stroke:#038048;stroke-width:1.0;"/><text fill="#000000" font-family="sans-serif" font-size="14" lengthAdjust="spacing" textLength="158" x="245.5" y="260.9659">Habilidades Adquiridas</text><ellipse cx="236.5" cy="276.1019" fill="none" rx="3" ry="3" style="stroke:#038048;stroke-width:1.0;"/><text fill="#000000" font-family="sans-serif" font-size="14" lengthAdjust="spacing" textLength="135" x="245.5" y="280.0339">Experiencia Práctica</text><ellipse cx="236.5" cy="295.1698" fill="none" rx="3" ry="3" style="stroke:#038048;stroke-width:1.0;"/><text fill="#000000" font-family="sans-serif" font-size="14" lengthAdjust="spacing" textLength="143" x="245.5" y="299.1018">Proyectos y Portafolio</text><line style="stroke:#181818;stroke-width:0.5;" x1="226.5" x2="432.5" y1="307.2038" y2="307.2038"/></g><!--MD5=[03b5f7d4e95a96e004b159615baf95e6]
class ContribuciónAlMercadoLaboral--><g id="elem_ContribuciónAlMercadoLaboral"><rect codeLine="20" fill="#F1F1F1" height="105.2038" id="ContribuciónAlMercadoLaboral" rx="2.5" ry="2.5" style="stroke:#181818;stroke-width:0.5;" width="241" x="469" y="210"/><ellipse cx="484" cy="226" fill="#ADD1B2" rx="11" ry="11" style="stroke:#181818;stroke-width:1.0;"/><path d="M483.4688,232.9219 Q481.7188,232.9219 480.5781,232.1875 Q479.4531,231.4375 478.8906,230.0938 Q478.3438,228.7344 478.3438,226.9375 Q478.3438,224.9063 479,223.4531 Q479.6563,222 480.9375,221.2188 Q482.2188,220.4375 484.0938,220.4375 Q484.9844,220.4375 485.6563,220.625 Q486.3281,220.7969 487.0156,221.1406 L486.2031,223.1563 Q485.5781,222.8438 485.0313,222.7188 Q484.5,222.5938 484.0156,222.5938 Q482.8438,222.5938 482.1406,223.125 Q481.4375,223.6563 481.1406,224.6094 Q480.8438,225.5625 480.8438,226.8281 Q480.8438,228.8438 481.5625,229.8125 Q482.2813,230.7656 483.875,230.7656 Q484.4688,230.7656 485.0938,230.6094 Q485.7188,230.4531 486.5469,230.0781 L486.5469,232.2969 Q485.8125,232.6094 485.0156,232.7656 Q484.2344,232.9219 483.4688,232.9219 Z " fill="#000000"/><text fill="#000000" font-family="sans-serif" font-size="14" lengthAdjust="spacing" textLength="209" x="498" y="231.432">ContribuciónAlMercadoLaboral</text><line style="stroke:#181818;stroke-width:0.5;" x1="470" x2="709" y1="242" y2="242"/><ellipse cx="480" cy="257.034" fill="none" rx="3" ry="3" style="stroke:#038048;stroke-width:1.0;"/><text fill="#000000" font-family="sans-serif" font-size="14" lengthAdjust="spacing" textLength="113" x="489" y="260.9659">Emprendimiento</text><ellipse cx="480" cy="276.1019" fill="none" rx="3" ry="3" style="stroke:#038048;stroke-width:1.0;"/><text fill="#000000" font-family="sans-serif" font-size="14" lengthAdjust="spacing" textLength="74" x="489" y="280.0339">Innovación</text><ellipse cx="480" cy="295.1698" fill="none" rx="3" ry="3" style="stroke:#038048;stroke-width:1.0;"/><text fill="#000000" font-family="sans-serif" font-size="14" lengthAdjust="spacing" textLength="132" x="489" y="299.1018">Experiencia Laboral</text><line style="stroke:#181818;stroke-width:0.5;" x1="470" x2="709" y1="307.2038" y2="307.2038"/></g><!--MD5=[b8c77c7d99ce72a79e2f4554f5948e6e]
class SatisfacciónDelCliente--><g id="elem_SatisfacciónDelCliente"><rect codeLine="26" fill="#F1F1F1" height="105.2038" id="SatisfacciónDelCliente" rx="2.5" ry="2.5" style="stroke:#181818;stroke-width:0.5;" width="222" x="745.5" y="210"/><ellipse cx="778.95" cy="226" fill="#ADD1B2" rx="11" ry="11" style="stroke:#181818;stroke-width:1.0;"/><path d="M778.4188,232.9219 Q776.6688,232.9219 775.5281,232.1875 Q774.4031,231.4375 773.8406,230.0938 Q773.2938,228.7344 773.2938,226.9375 Q773.2938,224.9063 773.95,223.4531 Q774.6063,222 775.8875,221.2188 Q777.1688,220.4375 779.0438,220.4375 Q779.9344,220.4375 780.6063,220.625 Q781.2781,220.7969 781.9656,221.1406 L781.1531,223.1563 Q780.5281,222.8438 779.9813,222.7188 Q779.45,222.5938 778.9656,222.5938 Q777.7938,222.5938 777.0906,223.125 Q776.3875,223.6563 776.0906,224.6094 Q775.7938,225.5625 775.7938,226.8281 Q775.7938,228.8438 776.5125,229.8125 Q777.2313,230.7656 778.825,230.7656 Q779.4188,230.7656 780.0438,230.6094 Q780.6688,230.4531 781.4969,230.0781 L781.4969,232.2969 Q780.7625,232.6094 779.9656,232.7656 Q779.1844,232.9219 778.4188,232.9219 Z " fill="#000000"/><text fill="#000000" font-family="sans-serif" font-size="14" lengthAdjust="spacing" textLength="149" x="797.05" y="231.432">SatisfacciónDelCliente</text><line style="stroke:#181818;stroke-width:0.5;" x1="746.5" x2="966.5" y1="242" y2="242"/><ellipse cx="756.5" cy="257.034" fill="none" rx="3" ry="3" style="stroke:#038048;stroke-width:1.0;"/><text fill="#000000" font-family="sans-serif" font-size="14" lengthAdjust="spacing" textLength="147" x="765.5" y="260.9659">Experiencia Educativa</text><ellipse cx="756.5" cy="276.1019" fill="none" rx="3" ry="3" style="stroke:#038048;stroke-width:1.0;"/><text fill="#000000" font-family="sans-serif" font-size="14" lengthAdjust="spacing" textLength="136" x="765.5" y="280.0339">Servicios de Soporte</text><ellipse cx="756.5" cy="295.1698" fill="none" rx="3" ry="3" style="stroke:#038048;stroke-width:1.0;"/><text fill="#000000" font-family="sans-serif" font-size="14" lengthAdjust="spacing" textLength="196" x="765.5" y="299.1018">Actividades Extracurriculares</text><line style="stroke:#181818;stroke-width:0.5;" x1="746.5" x2="966.5" y1="307.2038" y2="307.2038"/></g><!--MD5=[c4f0f9ed5268bc115ac8f219bbec1505]
reverse link Alumno to InversiónEducativa--><g id="link_Alumno_InversiónEducativa"><path codeLine="32" d="M332.77,137.23 C285.75,162.17 233.38,189.95 190.09,212.91 " fill="none" id="Alumno-backto-InversiónEducativa" style="stroke:#181818;stroke-width:1.0;"/><polygon fill="#181818" points="344.28,131.12,337.1055,130.3946,333.6765,136.7383,340.851,137.4637,344.28,131.12" style="stroke:#181818;stroke-width:1.0;"/><polygon fill="#000000" points="280.0829,173.1959,289.4506,171.5539,286.6964,166.3612,280.0829,173.1959" style="stroke:#000000;stroke-width:1.0;"/><text fill="#000000" font-family="sans-serif" font-size="13" lengthAdjust="spacing" textLength="43" x="293.5" y="175.897">Incluye</text><text fill="#000000" font-family="sans-serif" font-size="13" lengthAdjust="spacing" textLength="7" x="323.553" y="153.2076">1</text><text fill="#000000" font-family="sans-serif" font-size="13" lengthAdjust="spacing" textLength="7" x="197.9646" y="205.0172">1</text></g><!--MD5=[ab90a2141e17bfb551354172c618f358]
reverse link Alumno to PotencialDeEmpleabilidad--><g id="link_Alumno_PotencialDeEmpleabilidad"><path codeLine="33" d="M410.6,142.03 C395.27,164.62 378.66,189.08 364.49,209.95 " fill="none" id="Alumno-backto-PotencialDeEmpleabilidad" style="stroke:#181818;stroke-width:1.0;"/><polygon fill="#181818" points="418.01,131.12,411.331,133.8386,411.2717,141.0495,417.9507,138.3309,418.01,131.12" style="stroke:#181818;stroke-width:1.0;"/><polygon fill="#000000" points="396.6916,174.9898,404.2036,169.157,399.3405,165.8556,396.6916,174.9898" style="stroke:#000000;stroke-width:1.0;"/><text fill="#000000" font-family="sans-serif" font-size="13" lengthAdjust="spacing" textLength="63" x="408.5" y="175.897">Determina</text><text fill="#000000" font-family="sans-serif" font-size="13" lengthAdjust="spacing" textLength="7" x="405.808" y="153.2076">1</text><text fill="#000000" font-family="sans-serif" font-size="13" lengthAdjust="spacing" textLength="7" x="361.9183" y="198.2972">1</text></g><!--MD5=[32230f7234af35399dc45221b98677b0]
reverse link Alumno to ContribuciónAlMercadoLaboral--><g id="link_Alumno_ContribuciónAlMercadoLaboral"><path codeLine="34" d="M508.4,142.03 C523.73,164.62 540.34,189.08 554.51,209.95 " fill="none" id="Alumno-backto-ContribuciónAlMercadoLaboral" style="stroke:#181818;stroke-width:1.0;"/><polygon fill="#181818" points="500.99,131.12,501.0493,138.3309,507.7283,141.0495,507.669,133.8386,500.99,131.12" style="stroke:#181818;stroke-width:1.0;"/><polygon fill="#000000" points="540.3084,174.9898,537.6595,165.8556,532.7964,169.157,540.3084,174.9898" style="stroke:#000000;stroke-width:1.0;"/><text fill="#000000" font-family="sans-serif" font-size="13" lengthAdjust="spacing" textLength="67" x="546.5" y="175.897">Contribuye</text><text fill="#000000" font-family="sans-serif" font-size="13" lengthAdjust="spacing" textLength="7" x="498.3826" y="153.2076">1</text><text fill="#000000" font-family="sans-serif" font-size="13" lengthAdjust="spacing" textLength="7" x="542.0973" y="198.2972">1</text></g><!--MD5=[adf37776c1c29a68aba47c896ba2ca80]
reverse link Alumno to SatisfacciónDelCliente--><g id="link_Alumno_SatisfacciónDelCliente"><path codeLine="35" d="M594.69,135.21 C645.19,159.57 701.8,186.88 749.42,209.85 " fill="none" id="Alumno-backto-SatisfacciónDelCliente" style="stroke:#181818;stroke-width:1.0;"/><polygon fill="#181818" points="582.67,129.41,586.3396,135.6176,593.4811,134.6178,589.8115,128.4102,582.67,129.41" style="stroke:#181818;stroke-width:1.0;"/><polygon fill="#000000" points="692.0034,173.0254,685.1336,166.4485,682.5798,171.7425,692.0034,173.0254" style="stroke:#000000;stroke-width:1.0;"/><text fill="#000000" font-family="sans-serif" font-size="13" lengthAdjust="spacing" textLength="30" x="696.5" y="175.897">Mide</text><text fill="#000000" font-family="sans-serif" font-size="13" lengthAdjust="spacing" textLength="7" x="590.389" y="129.4835">1</text><text fill="#000000" font-family="sans-serif" font-size="13" lengthAdjust="spacing" textLength="7" x="730.3253" y="200.0862">1</text></g><!--MD5=[fd15d8bfa877e8299871b01249bcdaee]
@startuml
class Alumno {
    +Inversión Educativa
    +Potencial de Empleabilidad
    +Contribución al Mercado Laboral
    +Satisfacción del Cliente
}

class InversiónEducativa {
    +Retorno de la Inversión
    +Costo de la Educación
    +Becas y Financiamiento
}

class PotencialDeEmpleabilidad {
    +Habilidades Adquiridas
    +Experiencia Práctica
    +Proyectos y Portafolio
}

class ContribuciónAlMercadoLaboral {
    +Emprendimiento
    +Innovación
    +Experiencia Laboral
}

class SatisfacciónDelCliente {
    +Experiencia Educativa
    +Servicios de Soporte
    +Actividades Extracurriculares
}

Alumno "1" *- - "1" InversiónEducativa : Incluye >
Alumno "1" *- - "1" PotencialDeEmpleabilidad : Determina >
Alumno "1" *- - "1" ContribuciónAlMercadoLaboral : Contribuye >
Alumno "1" *- - "1" SatisfacciónDelCliente : Mide >

@enduml

PlantUML version 1.2022.7(Mon Aug 22 19:01:30 CEST 2022)
(GPL source distribution)
Java Runtime: OpenJDK Runtime Environment
JVM: OpenJDK 64-Bit Server VM
Default Encoding: UTF-8
Language: es
Country: ES
--></g></svg>