<?xml version="1.0" encoding="UTF-8" standalone="no"?><svg xmlns="http://www.w3.org/2000/svg" xmlns:xlink="http://www.w3.org/1999/xlink" contentStyleType="text/css" height="303px" preserveAspectRatio="none" style="width:828px;height:303px;background:#FFFFFF;" version="1.1" viewBox="0 0 828 303" width="828px" zoomAndPan="magnify"><defs/><g><!--MD5=[b887cf1b6732c2da6b2473101c66933d]
class Alumno--><g id="elem_Alumno"><rect codeLine="1" fill="#F1F1F1" height="105.2038" id="Alumno" rx="2.5" ry="2.5" style="stroke:#181818;stroke-width:0.5;" width="168" x="309" y="7"/><ellipse cx="362.75" cy="23" fill="#ADD1B2" rx="11" ry="11" style="stroke:#181818;stroke-width:1.0;"/><path d="M362.2188,29.9219 Q360.4688,29.9219 359.3281,29.1875 Q358.2031,28.4375 357.6406,27.0938 Q357.0938,25.7344 357.0938,23.9375 Q357.0938,21.9063 357.75,20.4531 Q358.4063,19 359.6875,18.2188 Q360.9688,17.4375 362.8438,17.4375 Q363.7344,17.4375 364.4063,17.625 Q365.0781,17.7969 365.7656,18.1406 L364.9531,20.1563 Q364.3281,19.8438 363.7813,19.7188 Q363.25,19.5938 362.7656,19.5938 Q361.5938,19.5938 360.8906,20.125 Q360.1875,20.6563 359.8906,21.6094 Q359.5938,22.5625 359.5938,23.8281 Q359.5938,25.8438 360.3125,26.8125 Q361.0313,27.7656 362.625,27.7656 Q363.2188,27.7656 363.8438,27.6094 Q364.4688,27.4531 365.2969,27.0781 L365.2969,29.2969 Q364.5625,29.6094 363.7656,29.7656 Q362.9844,29.9219 362.2188,29.9219 Z " fill="#000000"/><text fill="#000000" font-family="sans-serif" font-size="14" lengthAdjust="spacing" textLength="52" x="383.25" y="28.432">Alumno</text><line style="stroke:#181818;stroke-width:0.5;" x1="310" x2="476" y1="39" y2="39"/><ellipse cx="320" cy="54.034" fill="none" rx="3" ry="3" style="stroke:#038048;stroke-width:1.0;"/><text fill="#000000" font-family="sans-serif" font-size="14" lengthAdjust="spacing" textLength="121" x="329" y="57.9659">Proceso Educativo</text><ellipse cx="320" cy="73.1019" fill="none" rx="3" ry="3" style="stroke:#038048;stroke-width:1.0;"/><text fill="#000000" font-family="sans-serif" font-size="14" lengthAdjust="spacing" textLength="108" x="329" y="77.0339">Flujo de Trabajo</text><ellipse cx="320" cy="92.1698" fill="none" rx="3" ry="3" style="stroke:#038048;stroke-width:1.0;"/><text fill="#000000" font-family="sans-serif" font-size="14" lengthAdjust="spacing" textLength="142" x="329" y="96.1018">Ergonomía Educativa</text><line style="stroke:#181818;stroke-width:0.5;" x1="310" x2="476" y1="104.2038" y2="104.2038"/></g><!--MD5=[f28bfc399b1c6802254b1b4c09bc575e]
class ProcesoEducativo--><g id="elem_ProcesoEducativo"><rect codeLine="7" fill="#F1F1F1" height="105.2038" id="ProcesoEducativo" rx="2.5" ry="2.5" style="stroke:#181818;stroke-width:0.5;" width="252" x="7" y="191"/><ellipse cx="70.25" cy="207" fill="#ADD1B2" rx="11" ry="11" style="stroke:#181818;stroke-width:1.0;"/><path d="M69.7188,213.9219 Q67.9688,213.9219 66.8281,213.1875 Q65.7031,212.4375 65.1406,211.0938 Q64.5938,209.7344 64.5938,207.9375 Q64.5938,205.9063 65.25,204.4531 Q65.9063,203 67.1875,202.2188 Q68.4688,201.4375 70.3438,201.4375 Q71.2344,201.4375 71.9063,201.625 Q72.5781,201.7969 73.2656,202.1406 L72.4531,204.1563 Q71.8281,203.8438 71.2813,203.7188 Q70.75,203.5938 70.2656,203.5938 Q69.0938,203.5938 68.3906,204.125 Q67.6875,204.6563 67.3906,205.6094 Q67.0938,206.5625 67.0938,207.8281 Q67.0938,209.8438 67.8125,210.8125 Q68.5313,211.7656 70.125,211.7656 Q70.7188,211.7656 71.3438,211.6094 Q71.9688,211.4531 72.7969,211.0781 L72.7969,213.2969 Q72.0625,213.6094 71.2656,213.7656 Q70.4844,213.9219 69.7188,213.9219 Z " fill="#000000"/><text fill="#000000" font-family="sans-serif" font-size="14" lengthAdjust="spacing" textLength="117" x="90.75" y="212.432">ProcesoEducativo</text><line style="stroke:#181818;stroke-width:0.5;" x1="8" x2="258" y1="223" y2="223"/><ellipse cx="18" cy="238.034" fill="none" rx="3" ry="3" style="stroke:#038048;stroke-width:1.0;"/><text fill="#000000" font-family="sans-serif" font-size="14" lengthAdjust="spacing" textLength="226" x="27" y="241.9659">Maximización de la Productividad</text><ellipse cx="18" cy="257.1019" fill="none" rx="3" ry="3" style="stroke:#038048;stroke-width:1.0;"/><text fill="#000000" font-family="sans-serif" font-size="14" lengthAdjust="spacing" textLength="176" x="27" y="261.0339">Minimización de Recursos</text><ellipse cx="18" cy="276.1698" fill="none" rx="3" ry="3" style="stroke:#038048;stroke-width:1.0;"/><text fill="#000000" font-family="sans-serif" font-size="14" lengthAdjust="spacing" textLength="139" x="27" y="280.1018">Objetivos Educativos</text><line style="stroke:#181818;stroke-width:0.5;" x1="8" x2="258" y1="288.2038" y2="288.2038"/></g><!--MD5=[d1efe4a3f8b050600b91547f9827f754]
class FlujoDeTrabajo--><g id="elem_FlujoDeTrabajo"><rect codeLine="13" fill="#F1F1F1" height="105.2038" id="FlujoDeTrabajo" rx="2.5" ry="2.5" style="stroke:#181818;stroke-width:0.5;" width="198" x="294" y="191"/><ellipse cx="338.25" cy="207" fill="#ADD1B2" rx="11" ry="11" style="stroke:#181818;stroke-width:1.0;"/><path d="M337.7188,213.9219 Q335.9688,213.9219 334.8281,213.1875 Q333.7031,212.4375 333.1406,211.0938 Q332.5938,209.7344 332.5938,207.9375 Q332.5938,205.9063 333.25,204.4531 Q333.9063,203 335.1875,202.2188 Q336.4688,201.4375 338.3438,201.4375 Q339.2344,201.4375 339.9063,201.625 Q340.5781,201.7969 341.2656,202.1406 L340.4531,204.1563 Q339.8281,203.8438 339.2813,203.7188 Q338.75,203.5938 338.2656,203.5938 Q337.0938,203.5938 336.3906,204.125 Q335.6875,204.6563 335.3906,205.6094 Q335.0938,206.5625 335.0938,207.8281 Q335.0938,209.8438 335.8125,210.8125 Q336.5313,211.7656 338.125,211.7656 Q338.7188,211.7656 339.3438,211.6094 Q339.9688,211.4531 340.7969,211.0781 L340.7969,213.2969 Q340.0625,213.6094 339.2656,213.7656 Q338.4844,213.9219 337.7188,213.9219 Z " fill="#000000"/><text fill="#000000" font-family="sans-serif" font-size="14" lengthAdjust="spacing" textLength="101" x="358.75" y="212.432">FlujoDeTrabajo</text><line style="stroke:#181818;stroke-width:0.5;" x1="295" x2="491" y1="223" y2="223"/><ellipse cx="305" cy="238.034" fill="none" rx="3" ry="3" style="stroke:#038048;stroke-width:1.0;"/><text fill="#000000" font-family="sans-serif" font-size="14" lengthAdjust="spacing" textLength="142" x="314" y="241.9659">Progresión Educativa</text><ellipse cx="305" cy="257.1019" fill="none" rx="3" ry="3" style="stroke:#038048;stroke-width:1.0;"/><text fill="#000000" font-family="sans-serif" font-size="14" lengthAdjust="spacing" textLength="167" x="314" y="261.0339">Planificación de Horarios</text><ellipse cx="305" cy="276.1698" fill="none" rx="3" ry="3" style="stroke:#038048;stroke-width:1.0;"/><text fill="#000000" font-family="sans-serif" font-size="14" lengthAdjust="spacing" textLength="172" x="314" y="280.1018">Optimización de Espacios</text><line style="stroke:#181818;stroke-width:0.5;" x1="295" x2="491" y1="288.2038" y2="288.2038"/></g><!--MD5=[5136c9be0cf3838621b87b599346416c]
class ErgonomíaEducativa--><g id="elem_ErgonomíaEducativa"><rect codeLine="19" fill="#F1F1F1" height="105.2038" id="ErgonomíaEducativa" rx="2.5" ry="2.5" style="stroke:#181818;stroke-width:0.5;" width="294" x="527" y="191"/><ellipse cx="600.75" cy="207" fill="#ADD1B2" rx="11" ry="11" style="stroke:#181818;stroke-width:1.0;"/><path d="M600.2188,213.9219 Q598.4688,213.9219 597.3281,213.1875 Q596.2031,212.4375 595.6406,211.0938 Q595.0938,209.7344 595.0938,207.9375 Q595.0938,205.9063 595.75,204.4531 Q596.4063,203 597.6875,202.2188 Q598.9688,201.4375 600.8438,201.4375 Q601.7344,201.4375 602.4063,201.625 Q603.0781,201.7969 603.7656,202.1406 L602.9531,204.1563 Q602.3281,203.8438 601.7813,203.7188 Q601.25,203.5938 600.7656,203.5938 Q599.5938,203.5938 598.8906,204.125 Q598.1875,204.6563 597.8906,205.6094 Q597.5938,206.5625 597.5938,207.8281 Q597.5938,209.8438 598.3125,210.8125 Q599.0313,211.7656 600.625,211.7656 Q601.2188,211.7656 601.8438,211.6094 Q602.4688,211.4531 603.2969,211.0781 L603.2969,213.2969 Q602.5625,213.6094 601.7656,213.7656 Q600.9844,213.9219 600.2188,213.9219 Z " fill="#000000"/><text fill="#000000" font-family="sans-serif" font-size="14" lengthAdjust="spacing" textLength="138" x="621.25" y="212.432">ErgonomíaEducativa</text><line style="stroke:#181818;stroke-width:0.5;" x1="528" x2="820" y1="223" y2="223"/><ellipse cx="538" cy="238.034" fill="none" rx="3" ry="3" style="stroke:#038048;stroke-width:1.0;"/><text fill="#000000" font-family="sans-serif" font-size="14" lengthAdjust="spacing" textLength="108" x="547" y="241.9659">Diseño de Aulas</text><ellipse cx="538" cy="257.1019" fill="none" rx="3" ry="3" style="stroke:#038048;stroke-width:1.0;"/><text fill="#000000" font-family="sans-serif" font-size="14" lengthAdjust="spacing" textLength="268" x="547" y="261.0339">Disposición de Entornos de Aprendizaje</text><ellipse cx="538" cy="276.1698" fill="none" rx="3" ry="3" style="stroke:#038048;stroke-width:1.0;"/><text fill="#000000" font-family="sans-serif" font-size="14" lengthAdjust="spacing" textLength="156" x="547" y="280.1018">Minimización de Fatiga</text><line style="stroke:#181818;stroke-width:0.5;" x1="528" x2="820" y1="288.2038" y2="288.2038"/></g><!--MD5=[ede06d8fcde7f466a4b166449fa0f712]
reverse link Alumno to ProcesoEducativo--><g id="link_Alumno_ProcesoEducativo"><path codeLine="25" d="M308.29,119.8 C275.62,142.67 238.58,168.59 206.99,190.7 " fill="none" id="Alumno-backto-ProcesoEducativo" style="stroke:#181818;stroke-width:1.0;"/><polygon fill="#181818" points="319.19,112.17,311.9807,112.3325,309.358,119.0498,316.5672,118.8872,319.19,112.17" style="stroke:#181818;stroke-width:1.0;"/><polygon fill="#000000" points="271.9037,154.72,280.9992,151.9413,277.6288,147.1258,271.9037,154.72" style="stroke:#000000;stroke-width:1.0;"/><text fill="#000000" font-family="sans-serif" font-size="13" lengthAdjust="spacing" textLength="54" x="285" y="156.897">Optimiza</text><text fill="#000000" font-family="sans-serif" font-size="13" lengthAdjust="spacing" textLength="7" x="302.2847" y="133.9366">1</text><text fill="#000000" font-family="sans-serif" font-size="13" lengthAdjust="spacing" textLength="7" x="209.9027" y="179.012">1</text></g><!--MD5=[b1bdf9aaeaab63dcd633ddfabf963b65]
reverse link Alumno to FlujoDeTrabajo--><g id="link_Alumno_FlujoDeTrabajo"><path codeLine="26" d="M393,125.22 C393,146.7 393,170.33 393,190.7 " fill="none" id="Alumno-backto-FlujoDeTrabajo" style="stroke:#181818;stroke-width:1.0;"/><polygon fill="#181818" points="393,112.17,389,118.17,393,124.17,397,118.17,393,112.17" style="stroke:#181818;stroke-width:1.0;"/><polygon fill="#000000" points="398,156.853,400.9389,147.8079,395.0611,147.8079,398,156.853" style="stroke:#000000;stroke-width:1.0;"/><text fill="#000000" font-family="sans-serif" font-size="13" lengthAdjust="spacing" textLength="46" x="407" y="156.897">Navega</text><text fill="#000000" font-family="sans-serif" font-size="13" lengthAdjust="spacing" textLength="7" x="385.5516" y="133.9366">1</text><text fill="#000000" font-family="sans-serif" font-size="13" lengthAdjust="spacing" textLength="7" x="385.5078" y="179.012">1</text></g><!--MD5=[693221c4cfad6621e1da0a9c1505490d]
reverse link Alumno to ErgonomíaEducativa--><g id="link_Alumno_ErgonomíaEducativa"><path codeLine="27" d="M484.09,119.5 C519.52,142.44 559.75,168.5 594.03,190.7 " fill="none" id="Alumno-backto-ErgonomíaEducativa" style="stroke:#181818;stroke-width:1.0;"/><polygon fill="#181818" points="472.77,112.17,475.6265,118.7912,482.837,118.701,479.9805,112.0798,472.77,112.17" style="stroke:#181818;stroke-width:1.0;"/><polygon fill="#000000" points="550.1968,154.5709,544.2023,147.1874,541.0072,152.121,550.1968,154.5709" style="stroke:#000000;stroke-width:1.0;"/><text fill="#000000" font-family="sans-serif" font-size="13" lengthAdjust="spacing" textLength="53" x="555" y="156.897">Beneficia</text><text fill="#000000" font-family="sans-serif" font-size="13" lengthAdjust="spacing" textLength="7" x="475.5421" y="133.9366">1</text><text fill="#000000" font-family="sans-serif" font-size="13" lengthAdjust="spacing" textLength="7" x="575.292" y="179.012">1</text></g><!--MD5=[c91f4b406e22c02e1a32a916e719fc0f]
@startuml
class Alumno {
    +Proceso Educativo
    +Flujo de Trabajo
    +Ergonomía Educativa
}

class ProcesoEducativo {
    +Maximización de la Productividad
    +Minimización de Recursos
    +Objetivos Educativos
}

class FlujoDeTrabajo {
    +Progresión Educativa
    +Planificación de Horarios
    +Optimización de Espacios
}

class ErgonomíaEducativa {
    +Diseño de Aulas
    +Disposición de Entornos de Aprendizaje
    +Minimización de Fatiga
}

Alumno "1" *- - "1" ProcesoEducativo : Optimiza >
Alumno "1" *- - "1" FlujoDeTrabajo : Navega >
Alumno "1" *- - "1" ErgonomíaEducativa : Beneficia >

@enduml

PlantUML version 1.2022.7(Mon Aug 22 19:01:30 CEST 2022)
(GPL source distribution)
Java Runtime: OpenJDK Runtime Environment
JVM: OpenJDK 64-Bit Server VM
Default Encoding: UTF-8
Language: es
Country: ES
--></g></svg>