<?xml version="1.0" encoding="UTF-8" standalone="no"?><svg xmlns="http://www.w3.org/2000/svg" xmlns:xlink="http://www.w3.org/1999/xlink" contentStyleType="text/css" height="468px" preserveAspectRatio="none" style="width:578px;height:468px;background:#FFFFFF;" version="1.1" viewBox="0 0 578 468" width="578px" zoomAndPan="magnify"><defs/><g><!--MD5=[89c1bd9542380666cb03b7dd5a0e90da]
class Cinema--><g id="elem_Cinema"><rect codeLine="1" fill="#F1F1F1" height="105.2038" id="Cinema" rx="2.5" ry="2.5" style="stroke:#181818;stroke-width:0.5;" width="264" x="193.5" y="7"/><ellipse cx="295.75" cy="23" fill="#ADD1B2" rx="11" ry="11" style="stroke:#181818;stroke-width:1.0;"/><path d="M295.2188,29.9219 Q293.4688,29.9219 292.3281,29.1875 Q291.2031,28.4375 290.6406,27.0938 Q290.0938,25.7344 290.0938,23.9375 Q290.0938,21.9063 290.75,20.4531 Q291.4063,19 292.6875,18.2188 Q293.9688,17.4375 295.8438,17.4375 Q296.7344,17.4375 297.4063,17.625 Q298.0781,17.7969 298.7656,18.1406 L297.9531,20.1563 Q297.3281,19.8438 296.7813,19.7188 Q296.25,19.5938 295.7656,19.5938 Q294.5938,19.5938 293.8906,20.125 Q293.1875,20.6563 292.8906,21.6094 Q292.5938,22.5625 292.5938,23.8281 Q292.5938,25.8438 293.3125,26.8125 Q294.0313,27.7656 295.625,27.7656 Q296.2188,27.7656 296.8438,27.6094 Q297.4688,27.4531 298.2969,27.0781 L298.2969,29.2969 Q297.5625,29.6094 296.7656,29.7656 Q295.9844,29.9219 295.2188,29.9219 Z " fill="#000000"/><text fill="#000000" font-family="sans-serif" font-size="14" lengthAdjust="spacing" textLength="51" x="316.25" y="28.432">Cinema</text><line style="stroke:#181818;stroke-width:0.5;" x1="194.5" x2="456.5" y1="39" y2="39"/><line style="stroke:#181818;stroke-width:0.5;" x1="194.5" x2="456.5" y1="47" y2="47"/><ellipse cx="204.5" cy="62.034" fill="#84BE84" rx="3" ry="3" style="stroke:#038048;stroke-width:1.0;"/><text fill="#000000" font-family="sans-serif" font-size="14" lengthAdjust="spacing" textLength="59" x="213.5" y="65.9659">Cinema()</text><ellipse cx="204.5" cy="81.1019" fill="#84BE84" rx="3" ry="3" style="stroke:#038048;stroke-width:1.0;"/><text fill="#000000" font-family="sans-serif" font-size="14" lengthAdjust="spacing" textLength="126" x="213.5" y="85.0339">showMovies(): void</text><ellipse cx="204.5" cy="100.1698" fill="#84BE84" rx="3" ry="3" style="stroke:#038048;stroke-width:1.0;"/><text fill="#000000" font-family="sans-serif" font-size="14" lengthAdjust="spacing" textLength="238" x="213.5" y="104.1018">buyTicket(Moviegoer, Movie): Ticket</text></g><!--MD5=[e69084ab16b022bdbef99762ea85e9d6]
class Movie--><g id="elem_Movie"><rect codeLine="7" fill="#F1F1F1" height="124.2717" id="Movie" rx="2.5" ry="2.5" style="stroke:#181818;stroke-width:0.5;" width="337" x="7" y="337"/><ellipse cx="151.25" cy="353" fill="#ADD1B2" rx="11" ry="11" style="stroke:#181818;stroke-width:1.0;"/><path d="M150.7188,359.9219 Q148.9688,359.9219 147.8281,359.1875 Q146.7031,358.4375 146.1406,357.0938 Q145.5938,355.7344 145.5938,353.9375 Q145.5938,351.9063 146.25,350.4531 Q146.9063,349 148.1875,348.2188 Q149.4688,347.4375 151.3438,347.4375 Q152.2344,347.4375 152.9063,347.625 Q153.5781,347.7969 154.2656,348.1406 L153.4531,350.1563 Q152.8281,349.8438 152.2813,349.7188 Q151.75,349.5938 151.2656,349.5938 Q150.0938,349.5938 149.3906,350.125 Q148.6875,350.6563 148.3906,351.6094 Q148.0938,352.5625 148.0938,353.8281 Q148.0938,355.8438 148.8125,356.8125 Q149.5313,357.7656 151.125,357.7656 Q151.7188,357.7656 152.3438,357.6094 Q152.9688,357.4531 153.7969,357.0781 L153.7969,359.2969 Q153.0625,359.6094 152.2656,359.7656 Q151.4844,359.9219 150.7188,359.9219 Z " fill="#000000"/><text fill="#000000" font-family="sans-serif" font-size="14" lengthAdjust="spacing" textLength="40" x="171.75" y="358.432">Movie</text><line style="stroke:#181818;stroke-width:0.5;" x1="8" x2="343" y1="369" y2="369"/><line style="stroke:#181818;stroke-width:0.5;" x1="8" x2="343" y1="377" y2="377"/><ellipse cx="18" cy="392.034" fill="#84BE84" rx="3" ry="3" style="stroke:#038048;stroke-width:1.0;"/><text fill="#000000" font-family="sans-serif" font-size="14" lengthAdjust="spacing" textLength="311" x="27" y="395.9659">Movie(title: String, director: String, length: int)</text><ellipse cx="18" cy="411.1019" fill="#84BE84" rx="3" ry="3" style="stroke:#038048;stroke-width:1.0;"/><text fill="#000000" font-family="sans-serif" font-size="14" lengthAdjust="spacing" textLength="108" x="27" y="415.0339">getTitle(): String</text><ellipse cx="18" cy="430.1698" fill="#84BE84" rx="3" ry="3" style="stroke:#038048;stroke-width:1.0;"/><text fill="#000000" font-family="sans-serif" font-size="14" lengthAdjust="spacing" textLength="133" x="27" y="434.1018">getDirector(): String</text><ellipse cx="18" cy="449.2377" fill="#84BE84" rx="3" ry="3" style="stroke:#038048;stroke-width:1.0;"/><text fill="#000000" font-family="sans-serif" font-size="14" lengthAdjust="spacing" textLength="103" x="27" y="453.1697">getLength(): int</text></g><!--MD5=[ac6bea31e13c94c7baa9ad18feb7405e]
class Ticket--><g id="elem_Ticket"><rect codeLine="14" fill="#F1F1F1" height="105.2038" id="Ticket" rx="2.5" ry="2.5" style="stroke:#181818;stroke-width:0.5;" width="206" x="222.5" y="172"/><ellipse cx="301.75" cy="188" fill="#ADD1B2" rx="11" ry="11" style="stroke:#181818;stroke-width:1.0;"/><path d="M301.2188,194.9219 Q299.4688,194.9219 298.3281,194.1875 Q297.2031,193.4375 296.6406,192.0938 Q296.0938,190.7344 296.0938,188.9375 Q296.0938,186.9063 296.75,185.4531 Q297.4063,184 298.6875,183.2188 Q299.9688,182.4375 301.8438,182.4375 Q302.7344,182.4375 303.4063,182.625 Q304.0781,182.7969 304.7656,183.1406 L303.9531,185.1563 Q303.3281,184.8438 302.7813,184.7188 Q302.25,184.5938 301.7656,184.5938 Q300.5938,184.5938 299.8906,185.125 Q299.1875,185.6563 298.8906,186.6094 Q298.5938,187.5625 298.5938,188.8281 Q298.5938,190.8438 299.3125,191.8125 Q300.0313,192.7656 301.625,192.7656 Q302.2188,192.7656 302.8438,192.6094 Q303.4688,192.4531 304.2969,192.0781 L304.2969,194.2969 Q303.5625,194.6094 302.7656,194.7656 Q301.9844,194.9219 301.2188,194.9219 Z " fill="#000000"/><text fill="#000000" font-family="sans-serif" font-size="14" lengthAdjust="spacing" textLength="39" x="322.25" y="193.432">Ticket</text><line style="stroke:#181818;stroke-width:0.5;" x1="223.5" x2="427.5" y1="204" y2="204"/><line style="stroke:#181818;stroke-width:0.5;" x1="223.5" x2="427.5" y1="212" y2="212"/><ellipse cx="233.5" cy="227.034" fill="#84BE84" rx="3" ry="3" style="stroke:#038048;stroke-width:1.0;"/><text fill="#000000" font-family="sans-serif" font-size="14" lengthAdjust="spacing" textLength="166" x="242.5" y="230.9659">Ticket(Moviegoer, Movie)</text><ellipse cx="233.5" cy="246.1019" fill="#84BE84" rx="3" ry="3" style="stroke:#038048;stroke-width:1.0;"/><text fill="#000000" font-family="sans-serif" font-size="14" lengthAdjust="spacing" textLength="118" x="242.5" y="250.0339">getMovie(): Movie</text><ellipse cx="233.5" cy="265.1698" fill="#84BE84" rx="3" ry="3" style="stroke:#038048;stroke-width:1.0;"/><text fill="#000000" font-family="sans-serif" font-size="14" lengthAdjust="spacing" textLength="180" x="242.5" y="269.1018">getMoviegoer(): Moviegoer</text></g><!--MD5=[ce3fab7effc0f41ba51d4da7b27886a8]
class Moviegoer--><g id="elem_Moviegoer"><rect codeLine="20" fill="#F1F1F1" height="86.1358" id="Moviegoer" rx="2.5" ry="2.5" style="stroke:#181818;stroke-width:0.5;" width="192" x="379.5" y="356"/><ellipse cx="435.75" cy="372" fill="#ADD1B2" rx="11" ry="11" style="stroke:#181818;stroke-width:1.0;"/><path d="M435.2188,378.9219 Q433.4688,378.9219 432.3281,378.1875 Q431.2031,377.4375 430.6406,376.0938 Q430.0938,374.7344 430.0938,372.9375 Q430.0938,370.9063 430.75,369.4531 Q431.4063,368 432.6875,367.2188 Q433.9688,366.4375 435.8438,366.4375 Q436.7344,366.4375 437.4063,366.625 Q438.0781,366.7969 438.7656,367.1406 L437.9531,369.1563 Q437.3281,368.8438 436.7813,368.7188 Q436.25,368.5938 435.7656,368.5938 Q434.5938,368.5938 433.8906,369.125 Q433.1875,369.6563 432.8906,370.6094 Q432.5938,371.5625 432.5938,372.8281 Q432.5938,374.8438 433.3125,375.8125 Q434.0313,376.7656 435.625,376.7656 Q436.2188,376.7656 436.8438,376.6094 Q437.4688,376.4531 438.2969,376.0781 L438.2969,378.2969 Q437.5625,378.6094 436.7656,378.7656 Q435.9844,378.9219 435.2188,378.9219 Z " fill="#000000"/><text fill="#000000" font-family="sans-serif" font-size="14" lengthAdjust="spacing" textLength="71" x="456.25" y="377.432">Moviegoer</text><line style="stroke:#181818;stroke-width:0.5;" x1="380.5" x2="570.5" y1="388" y2="388"/><line style="stroke:#181818;stroke-width:0.5;" x1="380.5" x2="570.5" y1="396" y2="396"/><ellipse cx="390.5" cy="411.034" fill="#84BE84" rx="3" ry="3" style="stroke:#038048;stroke-width:1.0;"/><text fill="#000000" font-family="sans-serif" font-size="14" lengthAdjust="spacing" textLength="166" x="399.5" y="414.9659">Moviegoer(name: String)</text><ellipse cx="390.5" cy="430.1019" fill="#84BE84" rx="3" ry="3" style="stroke:#038048;stroke-width:1.0;"/><text fill="#000000" font-family="sans-serif" font-size="14" lengthAdjust="spacing" textLength="119" x="399.5" y="434.0339">getName(): String</text></g><!--MD5=[68cc595383b0e90e62e2e5aea7fea204]
link Cinema to Ticket--><g id="link_Cinema_Ticket"><path codeLine="25" d="M325.5,112.07 C325.5,131.19 325.5,152.87 325.5,171.98 " fill="none" id="Cinema-Ticket" style="stroke:#181818;stroke-width:1.0;"/></g><!--MD5=[40e2197d44ea6e0733a9bc47796e5ea2]
link Ticket to Moviegoer--><g id="link_Ticket_Moviegoer"><path codeLine="26" d="M370.5,277.26 C392.34,302.36 418.23,332.14 438.84,355.84 " fill="none" id="Ticket-Moviegoer" style="stroke:#181818;stroke-width:1.0;"/></g><!--MD5=[f08cb357b3a19bfe6aad5d2c9180348b]
link Ticket to Movie--><g id="link_Ticket_Movie"><path codeLine="27" d="M280.5,277.26 C264.19,296.01 245.61,317.37 228.66,336.86 " fill="none" id="Ticket-Movie" style="stroke:#181818;stroke-width:1.0;"/></g><!--MD5=[4cbe7deaf923ca2686bf9f318d8e103b]
@startuml
class Cinema {
  +Cinema()
  +showMovies(): void
  +buyTicket(Moviegoer, Movie): Ticket
}

class Movie {
  +Movie(title: String, director: String, length: int)
  +getTitle(): String
  +getDirector(): String
  +getLength(): int
}

class Ticket {
  +Ticket(Moviegoer, Movie)
  +getMovie(): Movie
  +getMoviegoer(): Moviegoer
}

class Moviegoer {
  +Moviegoer(name: String)
  +getName(): String
}

Cinema - - Ticket
Ticket - - Moviegoer
Ticket - - Movie

@enduml

PlantUML version 1.2022.7(Mon Aug 22 19:01:30 CEST 2022)
(GPL source distribution)
Java Runtime: OpenJDK Runtime Environment
JVM: OpenJDK 64-Bit Server VM
Default Encoding: UTF-8
Language: es
Country: ES
--></g></svg>