<?xml version="1.0" encoding="UTF-8" standalone="no"?><svg xmlns="http://www.w3.org/2000/svg" xmlns:xlink="http://www.w3.org/1999/xlink" contentStyleType="text/css" height="386px" preserveAspectRatio="none" style="width:228px;height:386px;background:#FFFFFF;" version="1.1" viewBox="0 0 228 386" width="228px" zoomAndPan="magnify"><defs/><g><!--MD5=[cb59bdd6a6266bd2ac35bc0441d3fa44]
cluster efectividad--><!--MD5=[898eb3bdc47a30381ffde2d865cee115]
class Eficacia--><g id="elem_Eficacia"><rect codeLine="3" fill="#F1F1F1" height="48" id="Eficacia" rx="2.5" ry="2.5" style="stroke:#181818;stroke-width:0.5;" width="83" x="7" y="331"/><ellipse cx="22" cy="347" fill="#ADD1B2" rx="11" ry="11" style="stroke:#181818;stroke-width:1.0;"/><path d="M21.4688,353.9219 Q19.7188,353.9219 18.5781,353.1875 Q17.4531,352.4375 16.8906,351.0938 Q16.3438,349.7344 16.3438,347.9375 Q16.3438,345.9063 17,344.4531 Q17.6563,343 18.9375,342.2188 Q20.2188,341.4375 22.0938,341.4375 Q22.9844,341.4375 23.6563,341.625 Q24.3281,341.7969 25.0156,342.1406 L24.2031,344.1563 Q23.5781,343.8438 23.0313,343.7188 Q22.5,343.5938 22.0156,343.5938 Q20.8438,343.5938 20.1406,344.125 Q19.4375,344.6563 19.1406,345.6094 Q18.8438,346.5625 18.8438,347.8281 Q18.8438,349.8438 19.5625,350.8125 Q20.2813,351.7656 21.875,351.7656 Q22.4688,351.7656 23.0938,351.6094 Q23.7188,351.4531 24.5469,351.0781 L24.5469,353.2969 Q23.8125,353.6094 23.0156,353.7656 Q22.2344,353.9219 21.4688,353.9219 Z " fill="#000000"/><text fill="#000000" font-family="sans-serif" font-size="14" lengthAdjust="spacing" textLength="51" x="36" y="352.432">Eficacia</text><line style="stroke:#181818;stroke-width:0.5;" x1="8" x2="89" y1="363" y2="363"/><line style="stroke:#181818;stroke-width:0.5;" x1="8" x2="89" y1="371" y2="371"/></g><!--MD5=[8e97db94623e3426c92a634a5459bdc0]
class Eficiencia--><g id="elem_Eficiencia"><rect codeLine="5" fill="#F1F1F1" height="48" id="Eficiencia" rx="2.5" ry="2.5" style="stroke:#181818;stroke-width:0.5;" width="96" x="125.5" y="331"/><ellipse cx="140.5" cy="347" fill="#ADD1B2" rx="11" ry="11" style="stroke:#181818;stroke-width:1.0;"/><path d="M139.9688,353.9219 Q138.2188,353.9219 137.0781,353.1875 Q135.9531,352.4375 135.3906,351.0938 Q134.8438,349.7344 134.8438,347.9375 Q134.8438,345.9063 135.5,344.4531 Q136.1563,343 137.4375,342.2188 Q138.7188,341.4375 140.5938,341.4375 Q141.4844,341.4375 142.1563,341.625 Q142.8281,341.7969 143.5156,342.1406 L142.7031,344.1563 Q142.0781,343.8438 141.5313,343.7188 Q141,343.5938 140.5156,343.5938 Q139.3438,343.5938 138.6406,344.125 Q137.9375,344.6563 137.6406,345.6094 Q137.3438,346.5625 137.3438,347.8281 Q137.3438,349.8438 138.0625,350.8125 Q138.7813,351.7656 140.375,351.7656 Q140.9688,351.7656 141.5938,351.6094 Q142.2188,351.4531 143.0469,351.0781 L143.0469,353.2969 Q142.3125,353.6094 141.5156,353.7656 Q140.7344,353.9219 139.9688,353.9219 Z " fill="#000000"/><text fill="#000000" font-family="sans-serif" font-size="14" lengthAdjust="spacing" textLength="64" x="154.5" y="352.432">Eficiencia</text><line style="stroke:#181818;stroke-width:0.5;" x1="126.5" x2="220.5" y1="363" y2="363"/><line style="stroke:#181818;stroke-width:0.5;" x1="126.5" x2="220.5" y1="371" y2="371"/></g><!--MD5=[51de0b1ef0f8a8debe8da3e3861d601c]
class Compromiso--><g id="elem_Compromiso"><rect codeLine="7" fill="#F1F1F1" height="48" id="Compromiso" rx="2.5" ry="2.5" style="stroke:#181818;stroke-width:0.5;" width="117" x="55" y="223"/><ellipse cx="70" cy="239" fill="#ADD1B2" rx="11" ry="11" style="stroke:#181818;stroke-width:1.0;"/><path d="M69.4688,245.9219 Q67.7188,245.9219 66.5781,245.1875 Q65.4531,244.4375 64.8906,243.0938 Q64.3438,241.7344 64.3438,239.9375 Q64.3438,237.9063 65,236.4531 Q65.6563,235 66.9375,234.2188 Q68.2188,233.4375 70.0938,233.4375 Q70.9844,233.4375 71.6563,233.625 Q72.3281,233.7969 73.0156,234.1406 L72.2031,236.1563 Q71.5781,235.8438 71.0313,235.7188 Q70.5,235.5938 70.0156,235.5938 Q68.8438,235.5938 68.1406,236.125 Q67.4375,236.6563 67.1406,237.6094 Q66.8438,238.5625 66.8438,239.8281 Q66.8438,241.8438 67.5625,242.8125 Q68.2813,243.7656 69.875,243.7656 Q70.4688,243.7656 71.0938,243.6094 Q71.7188,243.4531 72.5469,243.0781 L72.5469,245.2969 Q71.8125,245.6094 71.0156,245.7656 Q70.2344,245.9219 69.4688,245.9219 Z " fill="#000000"/><text fill="#000000" font-family="sans-serif" font-size="14" lengthAdjust="spacing" textLength="85" x="84" y="244.432">Compromiso</text><line style="stroke:#181818;stroke-width:0.5;" x1="56" x2="171" y1="255" y2="255"/><line style="stroke:#181818;stroke-width:0.5;" x1="56" x2="171" y1="263" y2="263"/></g><!--MD5=[ae470cfee48f598be90862634dfca4ef]
class Efectividad--><g id="elem_Efectividad"><rect codeLine="9" fill="#F1F1F1" height="48" id="Efectividad" rx="2.5" ry="2.5" style="stroke:#181818;stroke-width:0.5;" width="106" x="60.5" y="115"/><ellipse cx="75.5" cy="131" fill="#ADD1B2" rx="11" ry="11" style="stroke:#181818;stroke-width:1.0;"/><path d="M74.9688,137.9219 Q73.2188,137.9219 72.0781,137.1875 Q70.9531,136.4375 70.3906,135.0938 Q69.8438,133.7344 69.8438,131.9375 Q69.8438,129.9063 70.5,128.4531 Q71.1563,127 72.4375,126.2188 Q73.7188,125.4375 75.5938,125.4375 Q76.4844,125.4375 77.1563,125.625 Q77.8281,125.7969 78.5156,126.1406 L77.7031,128.1563 Q77.0781,127.8438 76.5313,127.7188 Q76,127.5938 75.5156,127.5938 Q74.3438,127.5938 73.6406,128.125 Q72.9375,128.6563 72.6406,129.6094 Q72.3438,130.5625 72.3438,131.8281 Q72.3438,133.8438 73.0625,134.8125 Q73.7813,135.7656 75.375,135.7656 Q75.9688,135.7656 76.5938,135.6094 Q77.2188,135.4531 78.0469,135.0781 L78.0469,137.2969 Q77.3125,137.6094 76.5156,137.7656 Q75.7344,137.9219 74.9688,137.9219 Z " fill="#000000"/><text fill="#000000" font-family="sans-serif" font-size="14" lengthAdjust="spacing" textLength="74" x="89.5" y="136.432">Efectividad</text><line style="stroke:#181818;stroke-width:0.5;" x1="61.5" x2="165.5" y1="147" y2="147"/><line style="stroke:#181818;stroke-width:0.5;" x1="61.5" x2="165.5" y1="155" y2="155"/></g><!--MD5=[fe46d6c85e445696ea723faede7edaee]
class Solucion--><g id="elem_Solucion"><rect codeLine="11" fill="#F1F1F1" height="48" id="Solucion" rx="2.5" ry="2.5" style="stroke:#181818;stroke-width:0.5;" width="89" x="69" y="7"/><ellipse cx="84" cy="23" fill="#ADD1B2" rx="11" ry="11" style="stroke:#181818;stroke-width:1.0;"/><path d="M83.4688,29.9219 Q81.7188,29.9219 80.5781,29.1875 Q79.4531,28.4375 78.8906,27.0938 Q78.3438,25.7344 78.3438,23.9375 Q78.3438,21.9063 79,20.4531 Q79.6563,19 80.9375,18.2188 Q82.2188,17.4375 84.0938,17.4375 Q84.9844,17.4375 85.6563,17.625 Q86.3281,17.7969 87.0156,18.1406 L86.2031,20.1563 Q85.5781,19.8438 85.0313,19.7188 Q84.5,19.5938 84.0156,19.5938 Q82.8438,19.5938 82.1406,20.125 Q81.4375,20.6563 81.1406,21.6094 Q80.8438,22.5625 80.8438,23.8281 Q80.8438,25.8438 81.5625,26.8125 Q82.2813,27.7656 83.875,27.7656 Q84.4688,27.7656 85.0938,27.6094 Q85.7188,27.4531 86.5469,27.0781 L86.5469,29.2969 Q85.8125,29.6094 85.0156,29.7656 Q84.2344,29.9219 83.4688,29.9219 Z " fill="#000000"/><text fill="#000000" font-family="sans-serif" font-size="14" lengthAdjust="spacing" textLength="57" x="98" y="28.432">Solución</text><line style="stroke:#181818;stroke-width:0.5;" x1="70" x2="157" y1="39" y2="39"/><line style="stroke:#181818;stroke-width:0.5;" x1="70" x2="157" y1="47" y2="47"/></g><!--MD5=[7c3860f4fd45db3ce1484cc803114a6f]
link Solucion to Efectividad--><g id="link_Solucion_Efectividad"><path codeLine="15" d="M113.5,67 C113.5,67 113.5,90.68 113.5,101.36 " fill="none" id="Solucion-Efectividad" style="stroke:#181818;stroke-width:1.0;"/><polygon fill="#181818" points="113.5,114.68,117.5,105.68,113.5,109.68,109.5,105.68,113.5,114.68" style="stroke:#181818;stroke-width:1.0;"/><line style="stroke:#181818;stroke-width:1.0;" x1="113.5" x2="113.5" y1="109.68" y2="101.68"/><polygon fill="#181818" points="113.5,55,109.5,61,113.5,67,117.5,61,113.5,55" style="stroke:#181818;stroke-width:1.0;"/></g><!--MD5=[f0dbca412f2f89a47cf804b2b5662130]
link Compromiso to Eficacia--><g id="link_Compromiso_Eficacia"><path codeLine="17" d="M99.4,271 C89.41,287.28 75.98,309.19 65.42,326.41 " fill="none" id="Compromiso-to-Eficacia" style="stroke:#181818;stroke-width:1.0;"/><polygon fill="#181818" points="62.8,330.68,70.91,325.0917,65.4101,326.4154,64.0865,320.9155,62.8,330.68" style="stroke:#181818;stroke-width:1.0;"/></g><!--MD5=[c954664d6cff47279f295e193fe8ef84]
link Compromiso to Eficiencia--><g id="link_Compromiso_Eficiencia"><path codeLine="18" d="M126.52,271 C135.66,287.14 147.92,308.82 157.63,325.97 " fill="none" id="Compromiso-to-Eficiencia" style="stroke:#181818;stroke-width:1.0;"/><polygon fill="#181818" points="160.3,330.68,159.3633,320.8758,157.8439,326.3248,152.3949,324.8055,160.3,330.68" style="stroke:#181818;stroke-width:1.0;"/></g><!--MD5=[63fcd433ba5a5b3b3665520f89c2cd5f]
link Efectividad to Eficacia--><g id="link_Efectividad_Eficacia"><path codeLine="20" d="M74.3034,171.5036 C74.3034,171.5036 44.98,203.76 37.5,223 C25.62,253.57 30.54,291.11 37.15,318.15 " fill="none" id="Efectividad-Eficacia" style="stroke:#181818;stroke-width:1.0;"/><polygon fill="#181818" points="40.57,330.87,42.0995,321.1406,39.2735,326.041,34.3731,323.2151,40.57,330.87" style="stroke:#181818;stroke-width:1.0;"/><line style="stroke:#181818;stroke-width:1.0;" x1="39.2735" x2="37.195" y1="326.041" y2="318.32"/><polygon fill="#181818" points="83.08,163.32,75.9638,164.4863,74.3034,171.5036,81.4196,170.3373,83.08,163.32" style="stroke:#181818;stroke-width:1.0;"/></g><!--MD5=[d61449beb2889ce97380a3361b37bfb6]
link Efectividad to Eficiencia--><g id="link_Efectividad_Eficiencia"><path codeLine="21" d="M152.6966,171.5036 C152.6966,171.5036 182.02,203.76 189.5,223 C201.43,253.69 194.92,291.21 186.92,318.22 " fill="none" id="Efectividad-Eficiencia" style="stroke:#181818;stroke-width:1.0;"/><polygon fill="#181818" points="182.82,330.92,189.3948,323.5871,184.3582,326.1625,181.7828,321.1259,182.82,330.92" style="stroke:#181818;stroke-width:1.0;"/><line style="stroke:#181818;stroke-width:1.0;" x1="184.3582" x2="186.81" y1="326.1625" y2="318.55"/><polygon fill="#181818" points="143.92,163.32,145.5804,170.3373,152.6966,171.5036,151.0362,164.4863,143.92,163.32" style="stroke:#181818;stroke-width:1.0;"/></g><!--MD5=[fd6909f1f60d97723941ea4e279451a0]
link Efectividad to Compromiso--><g id="link_Efectividad_Compromiso"><path codeLine="22" d="M113.5,175 C113.5,175 113.5,198.68 113.5,209.36 " fill="none" id="Efectividad-Compromiso" style="stroke:#181818;stroke-width:1.0;"/><polygon fill="#181818" points="113.5,222.68,117.5,213.68,113.5,217.68,109.5,213.68,113.5,222.68" style="stroke:#181818;stroke-width:1.0;"/><line style="stroke:#181818;stroke-width:1.0;" x1="113.5" x2="113.5" y1="217.68" y2="209.68"/><polygon fill="#181818" points="113.5,163,109.5,169,113.5,175,117.5,169,113.5,163" style="stroke:#181818;stroke-width:1.0;"/></g><!--MD5=[0057c8ccbd4f6c8f1a8b15d8ac115916]
@startuml
together efectividad {

class Eficacia

class Eficiencia

class Compromiso

class Efectividad

class "Solución" as Solucion

}

Solucion *-down-> Efectividad

Compromiso - -> Eficacia
Compromiso - -> Eficiencia

Efectividad *-down-> Eficacia
Efectividad *-down-> Eficiencia
Efectividad *-down-> Compromiso
@enduml

PlantUML version 1.2022.7(Mon Aug 22 19:01:30 CEST 2022)
(GPL source distribution)
Java Runtime: OpenJDK Runtime Environment
JVM: OpenJDK 64-Bit Server VM
Default Encoding: UTF-8
Language: es
Country: ES
--></g></svg>