<?xml version="1.0" encoding="us-ascii" standalone="no"?><svg xmlns="http://www.w3.org/2000/svg" xmlns:xlink="http://www.w3.org/1999/xlink" contentStyleType="text/css" height="785px" preserveAspectRatio="none" style="width:554px;height:785px;background:#FFFFFF;" version="1.1" viewBox="0 0 554 785" width="554px" zoomAndPan="magnify"><defs/><g><!--class Animal--><g id="elem_Animal"><rect codeLine="4" fill="#F1F1F1" height="86.1358" id="Animal" rx="2.5" ry="2.5" style="stroke:#181818;stroke-width:0.5;" width="79" x="367" y="7"/><ellipse cx="382" cy="23" fill="#ADD1B2" rx="11" ry="11" style="stroke:#181818;stroke-width:1.0;"/><path d="M381.4688,29.9219 Q379.7188,29.9219 378.5781,29.1875 Q377.4531,28.4375 376.8906,27.0938 Q376.3438,25.7344 376.3438,23.9375 Q376.3438,21.9063 377,20.4531 Q377.6563,19 378.9375,18.2188 Q380.2188,17.4375 382.0938,17.4375 Q382.9844,17.4375 383.6563,17.625 Q384.3281,17.7969 385.0156,18.1406 L384.2031,20.1563 Q383.5781,19.8438 383.0313,19.7188 Q382.5,19.5938 382.0156,19.5938 Q380.8438,19.5938 380.1406,20.125 Q379.4375,20.6563 379.1406,21.6094 Q378.8438,22.5625 378.8438,23.8281 Q378.8438,25.8438 379.5625,26.8125 Q380.2813,27.7656 381.875,27.7656 Q382.4688,27.7656 383.0938,27.6094 Q383.7188,27.4531 384.5469,27.0781 L384.5469,29.2969 Q383.8125,29.6094 383.0156,29.7656 Q382.2344,29.9219 381.4688,29.9219 Z " fill="#000000"/><text fill="#000000" font-family="sans-serif" font-size="14" lengthAdjust="spacing" textLength="47" x="396" y="28.432">Animal</text><line style="stroke:#181818;stroke-width:0.5;" x1="368" x2="445" y1="39" y2="39"/><rect fill="none" height="6" style="stroke:#C82930;stroke-width:1.0;" width="6" x="375" y="51.034"/><text fill="#000000" font-family="sans-serif" font-size="14" lengthAdjust="spacing" textLength="47" x="387" y="57.9659">celulas</text><line style="stroke:#181818;stroke-width:0.5;" x1="368" x2="445" y1="66.0679" y2="66.0679"/><ellipse cx="378" cy="81.1019" fill="#84BE84" rx="3" ry="3" style="stroke:#038048;stroke-width:1.0;"/><text fill="#000000" font-family="sans-serif" font-size="14" lengthAdjust="spacing" textLength="50" x="387" y="85.0339">comer()</text></g><!--class Vertebrado--><g id="elem_Vertebrado"><rect codeLine="8" fill="#F1F1F1" height="124.2717" id="Vertebrado" rx="2.5" ry="2.5" style="stroke:#181818;stroke-width:0.5;" width="133" x="259" y="153"/><ellipse cx="285.7" cy="169" fill="#ADD1B2" rx="11" ry="11" style="stroke:#181818;stroke-width:1.0;"/><path d="M285.1688,175.9219 Q283.4188,175.9219 282.2781,175.1875 Q281.1531,174.4375 280.5906,173.0938 Q280.0438,171.7344 280.0438,169.9375 Q280.0438,167.9063 280.7,166.4531 Q281.3563,165 282.6375,164.2188 Q283.9188,163.4375 285.7938,163.4375 Q286.6844,163.4375 287.3563,163.625 Q288.0281,163.7969 288.7156,164.1406 L287.9031,166.1563 Q287.2781,165.8438 286.7313,165.7188 Q286.2,165.5938 285.7156,165.5938 Q284.5438,165.5938 283.8406,166.125 Q283.1375,166.6563 282.8406,167.6094 Q282.5438,168.5625 282.5438,169.8281 Q282.5438,171.8438 283.2625,172.8125 Q283.9813,173.7656 285.575,173.7656 Q286.1688,173.7656 286.7938,173.6094 Q287.4188,173.4531 288.2469,173.0781 L288.2469,175.2969 Q287.5125,175.6094 286.7156,175.7656 Q285.9344,175.9219 285.1688,175.9219 Z " fill="#000000"/><text fill="#000000" font-family="sans-serif" font-size="14" lengthAdjust="spacing" textLength="75" x="302.3" y="174.432">Vertebrado</text><line style="stroke:#181818;stroke-width:0.5;" x1="260" x2="391" y1="185" y2="185"/><rect fill="none" height="6" style="stroke:#C82930;stroke-width:1.0;" width="6" x="267" y="197.034"/><text fill="#000000" font-family="sans-serif" font-size="14" lengthAdjust="spacing" textLength="47" x="279" y="203.9659">celulas</text><rect fill="none" height="6" style="stroke:#C82930;stroke-width:1.0;" width="6" x="267" y="216.1019"/><text fill="#000000" font-family="sans-serif" font-size="14" lengthAdjust="spacing" textLength="48" x="279" y="223.0339">huesos</text><line style="stroke:#181818;stroke-width:0.5;" x1="260" x2="391" y1="231.1358" y2="231.1358"/><ellipse cx="270" cy="246.1698" fill="#84BE84" rx="3" ry="3" style="stroke:#038048;stroke-width:1.0;"/><text fill="#000000" font-family="sans-serif" font-size="14" lengthAdjust="spacing" textLength="50" x="279" y="250.1018">comer()</text><ellipse cx="270" cy="265.2377" fill="#84BE84" rx="3" ry="3" style="stroke:#038048;stroke-width:1.0;"/><text fill="#000000" font-family="sans-serif" font-size="14" lengthAdjust="spacing" textLength="107" x="279" y="269.1697">romperHuesos()</text></g><!--class Invertebrado--><g id="elem_Invertebrado"><rect codeLine="14" fill="#F1F1F1" height="86.1358" id="Invertebrado" rx="2.5" ry="2.5" style="stroke:#181818;stroke-width:0.5;" width="120" x="427.5" y="172"/><ellipse cx="442.5" cy="188" fill="#ADD1B2" rx="11" ry="11" style="stroke:#181818;stroke-width:1.0;"/><path d="M441.9688,194.9219 Q440.2188,194.9219 439.0781,194.1875 Q437.9531,193.4375 437.3906,192.0938 Q436.8438,190.7344 436.8438,188.9375 Q436.8438,186.9063 437.5,185.4531 Q438.1563,184 439.4375,183.2188 Q440.7188,182.4375 442.5938,182.4375 Q443.4844,182.4375 444.1563,182.625 Q444.8281,182.7969 445.5156,183.1406 L444.7031,185.1563 Q444.0781,184.8438 443.5313,184.7188 Q443,184.5938 442.5156,184.5938 Q441.3438,184.5938 440.6406,185.125 Q439.9375,185.6563 439.6406,186.6094 Q439.3438,187.5625 439.3438,188.8281 Q439.3438,190.8438 440.0625,191.8125 Q440.7813,192.7656 442.375,192.7656 Q442.9688,192.7656 443.5938,192.6094 Q444.2188,192.4531 445.0469,192.0781 L445.0469,194.2969 Q444.3125,194.6094 443.5156,194.7656 Q442.7344,194.9219 441.9688,194.9219 Z " fill="#000000"/><text fill="#000000" font-family="sans-serif" font-size="14" lengthAdjust="spacing" textLength="88" x="456.5" y="193.432">Invertebrado</text><line style="stroke:#181818;stroke-width:0.5;" x1="428.5" x2="546.5" y1="204" y2="204"/><rect fill="none" height="6" style="stroke:#C82930;stroke-width:1.0;" width="6" x="435.5" y="216.034"/><text fill="#000000" font-family="sans-serif" font-size="14" lengthAdjust="spacing" textLength="47" x="447.5" y="222.9659">celulas</text><line style="stroke:#181818;stroke-width:0.5;" x1="428.5" x2="546.5" y1="231.0679" y2="231.0679"/><ellipse cx="438.5" cy="246.1019" fill="#84BE84" rx="3" ry="3" style="stroke:#038048;stroke-width:1.0;"/><text fill="#000000" font-family="sans-serif" font-size="14" lengthAdjust="spacing" textLength="50" x="447.5" y="250.0339">comer()</text></g><!--class Mamifero--><g id="elem_Mamifero"><rect codeLine="19" fill="#F1F1F1" height="162.4075" id="Mamifero" rx="2.5" ry="2.5" style="stroke:#181818;stroke-width:0.5;" width="133" x="175" y="346.5"/><ellipse cx="206.2" cy="362.5" fill="#ADD1B2" rx="11" ry="11" style="stroke:#181818;stroke-width:1.0;"/><path d="M205.6688,369.4219 Q203.9188,369.4219 202.7781,368.6875 Q201.6531,367.9375 201.0906,366.5938 Q200.5438,365.2344 200.5438,363.4375 Q200.5438,361.4063 201.2,359.9531 Q201.8563,358.5 203.1375,357.7188 Q204.4188,356.9375 206.2938,356.9375 Q207.1844,356.9375 207.8563,357.125 Q208.5281,357.2969 209.2156,357.6406 L208.4031,359.6563 Q207.7781,359.3438 207.2313,359.2188 Q206.7,359.0938 206.2156,359.0938 Q205.0438,359.0938 204.3406,359.625 Q203.6375,360.1563 203.3406,361.1094 Q203.0438,362.0625 203.0438,363.3281 Q203.0438,365.3438 203.7625,366.3125 Q204.4813,367.2656 206.075,367.2656 Q206.6688,367.2656 207.2938,367.1094 Q207.9188,366.9531 208.7469,366.5781 L208.7469,368.7969 Q208.0125,369.1094 207.2156,369.2656 Q206.4344,369.4219 205.6688,369.4219 Z " fill="#000000"/><text fill="#000000" font-family="sans-serif" font-size="14" lengthAdjust="spacing" textLength="65" x="223.8" y="367.932">Mamifero</text><line style="stroke:#181818;stroke-width:0.5;" x1="176" x2="307" y1="378.5" y2="378.5"/><rect fill="none" height="6" style="stroke:#C82930;stroke-width:1.0;" width="6" x="183" y="390.534"/><text fill="#000000" font-family="sans-serif" font-size="14" lengthAdjust="spacing" textLength="47" x="195" y="397.4659">celulas</text><rect fill="none" height="6" style="stroke:#C82930;stroke-width:1.0;" width="6" x="183" y="409.6019"/><text fill="#000000" font-family="sans-serif" font-size="14" lengthAdjust="spacing" textLength="48" x="195" y="416.5339">huesos</text><rect fill="none" height="6" style="stroke:#C82930;stroke-width:1.0;" width="6" x="183" y="428.6698"/><text fill="#000000" font-family="sans-serif" font-size="14" lengthAdjust="spacing" textLength="40" x="195" y="435.6018">labios</text><line style="stroke:#181818;stroke-width:0.5;" x1="176" x2="307" y1="443.7038" y2="443.7038"/><ellipse cx="186" cy="458.7377" fill="#84BE84" rx="3" ry="3" style="stroke:#038048;stroke-width:1.0;"/><text fill="#000000" font-family="sans-serif" font-size="14" lengthAdjust="spacing" textLength="50" x="195" y="462.6697">comer()</text><ellipse cx="186" cy="477.8056" fill="#84BE84" rx="3" ry="3" style="stroke:#038048;stroke-width:1.0;"/><text fill="#000000" font-family="sans-serif" font-size="14" lengthAdjust="spacing" textLength="107" x="195" y="481.7376">romperHuesos()</text><ellipse cx="186" cy="496.8735" fill="#84BE84" rx="3" ry="3" style="stroke:#038048;stroke-width:1.0;"/><text fill="#000000" font-family="sans-serif" font-size="14" lengthAdjust="spacing" textLength="56" x="195" y="500.8055">mamar()</text></g><!--class Ave--><g id="elem_Ave"><rect codeLine="27" fill="#F1F1F1" height="181.4754" id="Ave" rx="2.5" ry="2.5" style="stroke:#181818;stroke-width:0.5;" width="133" x="343" y="337"/><ellipse cx="393.25" cy="353" fill="#ADD1B2" rx="11" ry="11" style="stroke:#181818;stroke-width:1.0;"/><path d="M392.7188,359.9219 Q390.9688,359.9219 389.8281,359.1875 Q388.7031,358.4375 388.1406,357.0938 Q387.5938,355.7344 387.5938,353.9375 Q387.5938,351.9063 388.25,350.4531 Q388.9063,349 390.1875,348.2188 Q391.4688,347.4375 393.3438,347.4375 Q394.2344,347.4375 394.9063,347.625 Q395.5781,347.7969 396.2656,348.1406 L395.4531,350.1563 Q394.8281,349.8438 394.2813,349.7188 Q393.75,349.5938 393.2656,349.5938 Q392.0938,349.5938 391.3906,350.125 Q390.6875,350.6563 390.3906,351.6094 Q390.0938,352.5625 390.0938,353.8281 Q390.0938,355.8438 390.8125,356.8125 Q391.5313,357.7656 393.125,357.7656 Q393.7188,357.7656 394.3438,357.6094 Q394.9688,357.4531 395.7969,357.0781 L395.7969,359.2969 Q395.0625,359.6094 394.2656,359.7656 Q393.4844,359.9219 392.7188,359.9219 Z " fill="#000000"/><text fill="#000000" font-family="sans-serif" font-size="14" lengthAdjust="spacing" textLength="24" x="413.75" y="358.432">Ave</text><line style="stroke:#181818;stroke-width:0.5;" x1="344" x2="475" y1="369" y2="369"/><rect fill="none" height="6" style="stroke:#C82930;stroke-width:1.0;" width="6" x="351" y="381.034"/><text fill="#000000" font-family="sans-serif" font-size="14" lengthAdjust="spacing" textLength="47" x="363" y="387.9659">celulas</text><rect fill="none" height="6" style="stroke:#C82930;stroke-width:1.0;" width="6" x="351" y="400.1019"/><text fill="#000000" font-family="sans-serif" font-size="14" lengthAdjust="spacing" textLength="48" x="363" y="407.0339">huesos</text><rect fill="none" height="6" style="stroke:#C82930;stroke-width:1.0;" width="6" x="351" y="419.1698"/><text fill="#000000" font-family="sans-serif" font-size="14" lengthAdjust="spacing" textLength="28" x="363" y="426.1018">pico</text><line style="stroke:#181818;stroke-width:0.5;" x1="344" x2="475" y1="434.2038" y2="434.2038"/><ellipse cx="354" cy="449.2377" fill="#84BE84" rx="3" ry="3" style="stroke:#038048;stroke-width:1.0;"/><text fill="#000000" font-family="sans-serif" font-size="14" lengthAdjust="spacing" textLength="50" x="363" y="453.1697">comer()</text><ellipse cx="354" cy="468.3056" fill="#84BE84" rx="3" ry="3" style="stroke:#038048;stroke-width:1.0;"/><text fill="#000000" font-family="sans-serif" font-size="14" lengthAdjust="spacing" textLength="107" x="363" y="472.2376">romperHuesos()</text><ellipse cx="354" cy="487.3735" fill="#84BE84" rx="3" ry="3" style="stroke:#038048;stroke-width:1.0;"/><text fill="#000000" font-family="sans-serif" font-size="14" lengthAdjust="spacing" textLength="41" x="363" y="491.3055">volar()</text><ellipse cx="354" cy="506.4415" fill="#84BE84" rx="3" ry="3" style="stroke:#038048;stroke-width:1.0;"/><text fill="#000000" font-family="sans-serif" font-size="14" lengthAdjust="spacing" textLength="97" x="363" y="510.3734">ponerHuevos()</text></g><!--class Canino--><g id="elem_Canino"><rect codeLine="36" fill="#F1F1F1" height="181.4754" id="Canino" rx="2.5" ry="2.5" style="stroke:#181818;stroke-width:0.5;" width="133" x="7" y="588"/><ellipse cx="46.3" cy="604" fill="#ADD1B2" rx="11" ry="11" style="stroke:#181818;stroke-width:1.0;"/><path d="M45.7688,610.9219 Q44.0188,610.9219 42.8781,610.1875 Q41.7531,609.4375 41.1906,608.0938 Q40.6438,606.7344 40.6438,604.9375 Q40.6438,602.9063 41.3,601.4531 Q41.9563,600 43.2375,599.2188 Q44.5188,598.4375 46.3938,598.4375 Q47.2844,598.4375 47.9563,598.625 Q48.6281,598.7969 49.3156,599.1406 L48.5031,601.1563 Q47.8781,600.8438 47.3313,600.7188 Q46.8,600.5938 46.3156,600.5938 Q45.1438,600.5938 44.4406,601.125 Q43.7375,601.6563 43.4406,602.6094 Q43.1438,603.5625 43.1438,604.8281 Q43.1438,606.8438 43.8625,607.8125 Q44.5813,608.7656 46.175,608.7656 Q46.7688,608.7656 47.3938,608.6094 Q48.0188,608.4531 48.8469,608.0781 L48.8469,610.2969 Q48.1125,610.6094 47.3156,610.7656 Q46.5344,610.9219 45.7688,610.9219 Z " fill="#000000"/><text fill="#000000" font-family="sans-serif" font-size="14" lengthAdjust="spacing" textLength="47" x="65.7" y="609.432">Canino</text><line style="stroke:#181818;stroke-width:0.5;" x1="8" x2="139" y1="620" y2="620"/><rect fill="none" height="6" style="stroke:#C82930;stroke-width:1.0;" width="6" x="15" y="632.034"/><text fill="#000000" font-family="sans-serif" font-size="14" lengthAdjust="spacing" textLength="47" x="27" y="638.9659">celulas</text><rect fill="none" height="6" style="stroke:#C82930;stroke-width:1.0;" width="6" x="15" y="651.1019"/><text fill="#000000" font-family="sans-serif" font-size="14" lengthAdjust="spacing" textLength="48" x="27" y="658.0339">huesos</text><rect fill="none" height="6" style="stroke:#C82930;stroke-width:1.0;" width="6" x="15" y="670.1698"/><text fill="#000000" font-family="sans-serif" font-size="14" lengthAdjust="spacing" textLength="40" x="27" y="677.1018">labios</text><rect fill="none" height="6" style="stroke:#C82930;stroke-width:1.0;" width="6" x="15" y="689.2377"/><text fill="#000000" font-family="sans-serif" font-size="14" lengthAdjust="spacing" textLength="59" x="27" y="696.1697">colmillos</text><line style="stroke:#181818;stroke-width:0.5;" x1="8" x2="139" y1="704.2717" y2="704.2717"/><ellipse cx="18" cy="719.3056" fill="#84BE84" rx="3" ry="3" style="stroke:#038048;stroke-width:1.0;"/><text fill="#000000" font-family="sans-serif" font-size="14" lengthAdjust="spacing" textLength="50" x="27" y="723.2376">comer()</text><ellipse cx="18" cy="738.3735" fill="#84BE84" rx="3" ry="3" style="stroke:#038048;stroke-width:1.0;"/><text fill="#000000" font-family="sans-serif" font-size="14" lengthAdjust="spacing" textLength="107" x="27" y="742.3055">romperHuesos()</text><ellipse cx="18" cy="757.4415" fill="#84BE84" rx="3" ry="3" style="stroke:#038048;stroke-width:1.0;"/><text fill="#000000" font-family="sans-serif" font-size="14" lengthAdjust="spacing" textLength="56" x="27" y="761.3734">mamar()</text></g><!--class Humano--><g id="elem_Humano"><rect codeLine="45" fill="#F1F1F1" height="200.5433" id="Humano" rx="2.5" ry="2.5" style="stroke:#181818;stroke-width:0.5;" width="133" x="175" y="578"/><ellipse cx="209.8" cy="594" fill="#ADD1B2" rx="11" ry="11" style="stroke:#181818;stroke-width:1.0;"/><path d="M209.2688,600.9219 Q207.5188,600.9219 206.3781,600.1875 Q205.2531,599.4375 204.6906,598.0938 Q204.1438,596.7344 204.1438,594.9375 Q204.1438,592.9063 204.8,591.4531 Q205.4563,590 206.7375,589.2188 Q208.0188,588.4375 209.8938,588.4375 Q210.7844,588.4375 211.4563,588.625 Q212.1281,588.7969 212.8156,589.1406 L212.0031,591.1563 Q211.3781,590.8438 210.8313,590.7188 Q210.3,590.5938 209.8156,590.5938 Q208.6438,590.5938 207.9406,591.125 Q207.2375,591.6563 206.9406,592.6094 Q206.6438,593.5625 206.6438,594.8281 Q206.6438,596.8438 207.3625,597.8125 Q208.0813,598.7656 209.675,598.7656 Q210.2688,598.7656 210.8938,598.6094 Q211.5188,598.4531 212.3469,598.0781 L212.3469,600.2969 Q211.6125,600.6094 210.8156,600.7656 Q210.0344,600.9219 209.2688,600.9219 Z " fill="#000000"/><text fill="#000000" font-family="sans-serif" font-size="14" lengthAdjust="spacing" textLength="57" x="228.2" y="599.432">Humano</text><line style="stroke:#181818;stroke-width:0.5;" x1="176" x2="307" y1="610" y2="610"/><rect fill="none" height="6" style="stroke:#C82930;stroke-width:1.0;" width="6" x="183" y="622.034"/><text fill="#000000" font-family="sans-serif" font-size="14" lengthAdjust="spacing" textLength="47" x="195" y="628.9659">celulas</text><rect fill="none" height="6" style="stroke:#C82930;stroke-width:1.0;" width="6" x="183" y="641.1019"/><text fill="#000000" font-family="sans-serif" font-size="14" lengthAdjust="spacing" textLength="48" x="195" y="648.0339">huesos</text><rect fill="none" height="6" style="stroke:#C82930;stroke-width:1.0;" width="6" x="183" y="660.1698"/><text fill="#000000" font-family="sans-serif" font-size="14" lengthAdjust="spacing" textLength="40" x="195" y="667.1018">labios</text><rect fill="none" height="6" style="stroke:#C82930;stroke-width:1.0;" width="6" x="183" y="679.2377"/><text fill="#000000" font-family="sans-serif" font-size="14" lengthAdjust="spacing" textLength="65" x="195" y="686.1697">raciocinio</text><line style="stroke:#181818;stroke-width:0.5;" x1="176" x2="307" y1="694.2717" y2="694.2717"/><ellipse cx="186" cy="709.3056" fill="#84BE84" rx="3" ry="3" style="stroke:#038048;stroke-width:1.0;"/><text fill="#000000" font-family="sans-serif" font-size="14" lengthAdjust="spacing" textLength="50" x="195" y="713.2376">comer()</text><ellipse cx="186" cy="728.3735" fill="#84BE84" rx="3" ry="3" style="stroke:#038048;stroke-width:1.0;"/><text fill="#000000" font-family="sans-serif" font-size="14" lengthAdjust="spacing" textLength="107" x="195" y="732.3055">romperHuesos()</text><ellipse cx="186" cy="747.4415" fill="#84BE84" rx="3" ry="3" style="stroke:#038048;stroke-width:1.0;"/><text fill="#000000" font-family="sans-serif" font-size="14" lengthAdjust="spacing" textLength="56" x="195" y="751.3734">mamar()</text><ellipse cx="186" cy="766.5094" fill="#84BE84" rx="3" ry="3" style="stroke:#038048;stroke-width:1.0;"/><text fill="#000000" font-family="sans-serif" font-size="14" lengthAdjust="spacing" textLength="55" x="195" y="770.4414">pensar()</text></g><!--class Ornitorrinco--><g id="elem_Ornitorrinco"><rect codeLine="55" fill="#F1F1F1" height="181.4754" id="Ornitorrinco" rx="2.5" ry="2.5" style="stroke:#181818;stroke-width:0.5;" width="133" x="343" y="588"/><ellipse cx="366.1" cy="604" fill="#ADD1B2" rx="11" ry="11" style="stroke:#181818;stroke-width:1.0;"/><path d="M365.5688,610.9219 Q363.8188,610.9219 362.6781,610.1875 Q361.5531,609.4375 360.9906,608.0938 Q360.4438,606.7344 360.4438,604.9375 Q360.4438,602.9063 361.1,601.4531 Q361.7563,600 363.0375,599.2188 Q364.3188,598.4375 366.1938,598.4375 Q367.0844,598.4375 367.7563,598.625 Q368.4281,598.7969 369.1156,599.1406 L368.3031,601.1563 Q367.6781,600.8438 367.1313,600.7188 Q366.6,600.5938 366.1156,600.5938 Q364.9438,600.5938 364.2406,601.125 Q363.5375,601.6563 363.2406,602.6094 Q362.9438,603.5625 362.9438,604.8281 Q362.9438,606.8438 363.6625,607.8125 Q364.3813,608.7656 365.975,608.7656 Q366.5688,608.7656 367.1938,608.6094 Q367.8188,608.4531 368.6469,608.0781 L368.6469,610.2969 Q367.9125,610.6094 367.1156,610.7656 Q366.3344,610.9219 365.5688,610.9219 Z " fill="#000000"/><text fill="#000000" font-family="sans-serif" font-size="14" lengthAdjust="spacing" textLength="83" x="381.9" y="609.432">Ornitorrinco</text><line style="stroke:#181818;stroke-width:0.5;" x1="344" x2="475" y1="620" y2="620"/><rect fill="none" height="6" style="stroke:#C82930;stroke-width:1.0;" width="6" x="351" y="632.034"/><text fill="#000000" font-family="sans-serif" font-size="14" lengthAdjust="spacing" textLength="47" x="363" y="638.9659">celulas</text><rect fill="none" height="6" style="stroke:#C82930;stroke-width:1.0;" width="6" x="351" y="651.1019"/><text fill="#000000" font-family="sans-serif" font-size="14" lengthAdjust="spacing" textLength="48" x="363" y="658.0339">huesos</text><rect fill="none" height="6" style="stroke:#C82930;stroke-width:1.0;" width="6" x="351" y="670.1698"/><text fill="#000000" font-family="sans-serif" font-size="14" lengthAdjust="spacing" textLength="28" x="363" y="677.1018">pico</text><line style="stroke:#181818;stroke-width:0.5;" x1="344" x2="475" y1="685.2038" y2="685.2038"/><ellipse cx="354" cy="700.2377" fill="#84BE84" rx="3" ry="3" style="stroke:#038048;stroke-width:1.0;"/><text fill="#000000" font-family="sans-serif" font-size="14" lengthAdjust="spacing" textLength="50" x="363" y="704.1697">comer()</text><ellipse cx="354" cy="719.3056" fill="#84BE84" rx="3" ry="3" style="stroke:#038048;stroke-width:1.0;"/><text fill="#000000" font-family="sans-serif" font-size="14" lengthAdjust="spacing" textLength="107" x="363" y="723.2376">romperHuesos()</text><ellipse cx="354" cy="738.3735" fill="#84BE84" rx="3" ry="3" style="stroke:#038048;stroke-width:1.0;"/><text fill="#000000" font-family="sans-serif" font-size="14" lengthAdjust="spacing" textLength="97" x="363" y="742.3055">ponerHuevos()</text><ellipse cx="354" cy="757.4415" fill="#84BE84" rx="3" ry="3" style="stroke:#038048;stroke-width:1.0;"/><text fill="#000000" font-family="sans-serif" font-size="14" lengthAdjust="spacing" textLength="56" x="363" y="761.3734">mamar()</text></g><!--reverse link Animal to Vertebrado--><g id="link_Animal_Vertebrado"><path codeLine="65" d="M377.4193,109.5192 C368.4193,127.6292 365.75,133 355.92,152.78 " fill="none" id="Animal-backto-Vertebrado" style="stroke:#181818;stroke-width:1.0;"/><polygon fill="none" points="385.43,93.4,372.0463,106.849,382.7924,112.1894,385.43,93.4" style="stroke:#181818;stroke-width:1.0;"/></g><!--reverse link Animal to Invertebrado--><g id="link_Animal_Invertebrado"><path codeLine="66" d="M435.5798,109.5197 C447.5798,133.6697 454.55,147.7 466.54,171.81 " fill="none" id="Animal-backto-Invertebrado" style="stroke:#181818;stroke-width:1.0;"/><polygon fill="none" points="427.57,93.4,430.2065,112.1896,440.953,106.8497,427.57,93.4" style="stroke:#181818;stroke-width:1.0;"/></g><!--reverse link Vertebrado to Mamifero--><g id="link_Vertebrado_Mamifero"><path codeLine="67" d="M294.421,293.889 C285.801,315.499 282.64,323.41 273.48,346.35 " fill="none" id="Vertebrado-backto-Mamifero" style="stroke:#181818;stroke-width:1.0;"/><polygon fill="none" points="301.09,277.17,288.848,291.666,299.994,296.112,301.09,277.17" style="stroke:#181818;stroke-width:1.0;"/></g><!--reverse link Vertebrado to Ave--><g id="link_Vertebrado_Ave"><path codeLine="68" d="M356.5827,293.8875 C364.0427,312.5775 365.73,316.82 373.78,336.99 " fill="none" id="Vertebrado-backto-Ave" style="stroke:#181818;stroke-width:1.0;"/><polygon fill="none" points="349.91,277.17,351.0102,296.1117,362.1552,291.6633,349.91,277.17" style="stroke:#181818;stroke-width:1.0;"/></g><!--reverse link Mamifero to Canino--><g id="link_Mamifero_Canino"><path codeLine="69" d="M177.3485,523.5786 C160.2685,548.8786 151.37,562.08 133.89,588 " fill="none" id="Mamifero-backto-Canino" style="stroke:#181818;stroke-width:1.0;"/><polygon fill="none" points="187.42,508.66,172.3756,520.2214,182.3213,526.9358,187.42,508.66" style="stroke:#181818;stroke-width:1.0;"/></g><!--reverse link Mamifero to Humano--><g id="link_Mamifero_Humano"><path codeLine="70" d="M241.5,526.66 C241.5,548.69 241.5,554.86 241.5,577.85 " fill="none" id="Mamifero-backto-Humano" style="stroke:#181818;stroke-width:1.0;"/><polygon fill="none" points="241.5,508.66,235.5,526.66,247.5,526.66,241.5,508.66" style="stroke:#181818;stroke-width:1.0;"/></g><!--reverse link Mamifero to Ornitorrinco--><g id="link_Mamifero_Ornitorrinco"><path codeLine="71" d="M305.6515,523.5786 C322.7315,548.8786 331.63,562.08 349.11,588 " fill="none" id="Mamifero-backto-Ornitorrinco" style="stroke:#181818;stroke-width:1.0;"/><polygon fill="none" points="295.58,508.66,300.6787,526.9358,310.6244,520.2214,295.58,508.66" style="stroke:#181818;stroke-width:1.0;"/></g><!--reverse link Ave to Ornitorrinco--><g id="link_Ave_Ornitorrinco"><path codeLine="72" d="M409.5,536.04 C409.5,558.77 409.5,565.19 409.5,587.92 " fill="none" id="Ave-backto-Ornitorrinco" style="stroke:#181818;stroke-width:1.0;"/><polygon fill="none" points="409.5,518.04,403.5,536.04,415.5,536.04,409.5,518.04" style="stroke:#181818;stroke-width:1.0;"/></g><!--SRC=[bLBBJWCn3BpdAtm4hV87N2ekvO2uSNTJerfAx9Nt8I7Wtrco1NbRjeNhZ3FZSUR0UuAk9oFjNriA8MNiEjW85ynl8KAYF4nGQ21f8Rkv3H_7cMUoddQ6UmK_6E4mKAV-HGEcfINRLi99FCZukuXtEyu-Ok4NiXMp21btVDcrWO85VOJDI6joBIUzB3PgnfbgLIepBiBTex3KTTUtdQmr5yxvlvjlXu9oxHOH31DhOc7zc_oKXQHRE3sPSAzcB6abpFLJBG_aquIvQN3t7gDhr0BsBGckTPNyhiKPCVrj-EbCHUOFEG7dGvw0FdFuAiaP-Wa0]--></g></svg>