<?xml version="1.0" encoding="UTF-8" standalone="no"?><svg xmlns="http://www.w3.org/2000/svg" xmlns:xlink="http://www.w3.org/1999/xlink" contentStyleType="text/css" height="252px" preserveAspectRatio="none" style="width:215px;height:252px;background:#FFFFFF;" version="1.1" viewBox="0 0 215 252" width="215px" zoomAndPan="magnify"><defs/><g><ellipse cx="82" cy="16" fill="#222222" rx="10" ry="10" style="stroke:none;stroke-width:1.0;"/><g id="RestauranteCerrado"><rect fill="#F1F1F1" height="50" rx="12.5" ry="12.5" style="stroke:#181818;stroke-width:0.5;" width="150" x="7" y="86"/><line style="stroke:#181818;stroke-width:0.5;" x1="7" x2="157" y1="113.6094" y2="113.6094"/><text fill="#000000" font-family="sans-serif" font-size="14" lengthAdjust="spacing" textLength="130" x="17" y="105.5332">RestauranteCerrado</text></g><g id="RestauranteAbierto"><rect fill="#F1F1F1" height="50" rx="12.5" ry="12.5" style="stroke:#181818;stroke-width:0.5;" width="143" x="10.5" y="196"/><line style="stroke:#181818;stroke-width:0.5;" x1="10.5" x2="153.5" y1="223.6094" y2="223.6094"/><text fill="#000000" font-family="sans-serif" font-size="14" lengthAdjust="spacing" textLength="123" x="20.5" y="215.5332">RestauranteAbierto</text></g><ellipse cx="199" cy="221" fill="none" rx="10" ry="10" style="stroke:#222222;stroke-width:1.0;"/><ellipse cx="199.5" cy="221.5" fill="#222222" rx="6" ry="6" style="stroke:none;stroke-width:1.0;"/><!--MD5=[76c94ad7db09256febdf5964253eb615]
link *start to RestauranteCerrado--><g id="link_*start_RestauranteCerrado"><path d="M82,26.26 C82,38.86 82,61.98 82,80.74 " fill="none" id="*start-to-RestauranteCerrado" style="stroke:#181818;stroke-width:1.0;"/><polygon fill="#181818" points="82,85.91,86,76.91,82,80.91,78,76.91,82,85.91" style="stroke:#181818;stroke-width:1.0;"/></g><!--MD5=[656e2e8dc6aa66145021831dc362bf73]
link RestauranteCerrado to RestauranteAbierto--><g id="link_RestauranteCerrado_RestauranteAbierto"><path d="M71.16,136.24 C68.85,152.36 68.64,173.62 70.52,190.69 " fill="none" id="RestauranteCerrado-to-RestauranteAbierto" style="stroke:#181818;stroke-width:1.0;"/><polygon fill="#181818" points="71.17,195.84,74.0061,186.4083,70.541,190.8797,66.0696,187.4147,71.17,195.84" style="stroke:#181818;stroke-width:1.0;"/></g><!--MD5=[99a787eff03ad322242f0311e395c793]
reverse link RestauranteCerrado to RestauranteAbierto--><g id="link_RestauranteCerrado_RestauranteAbierto"><path d="M94.17,141.39 C96.15,158.48 95.92,179.74 93.47,195.84 " fill="none" id="RestauranteCerrado-backto-RestauranteAbierto" style="stroke:#181818;stroke-width:1.0;"/><polygon fill="#181818" points="93.48,136.24,90.6974,145.6876,94.1371,141.1966,98.628,144.6363,93.48,136.24" style="stroke:#181818;stroke-width:1.0;"/></g><!--MD5=[70fd9c20d64ef48b70be0d5456383e99]
link RestauranteCerrado to *end--><g id="link_RestauranteCerrado_*end"><path d="M108.26,136.24 C133.31,159.36 169.84,193.08 187.96,209.81 " fill="none" id="RestauranteCerrado-to-*end" style="stroke:#181818;stroke-width:1.0;"/><polygon fill="#181818" points="191.74,213.3,187.8355,204.2582,188.0643,209.9104,182.4121,210.1392,191.74,213.3" style="stroke:#181818;stroke-width:1.0;"/></g><!--MD5=[5b7449040ebc9315eda3fead3ea0e3d3]
@startuml DiagramaEstados

[*] - ->  RestauranteCerrado
RestauranteCerrado -down-> RestauranteAbierto

RestauranteAbierto -up->RestauranteCerrado 

RestauranteCerrado -down-> [*]

@enduml

PlantUML version 1.2022.7(Mon Aug 22 19:01:30 CEST 2022)
(GPL source distribution)
Java Runtime: Java(TM) SE Runtime Environment
JVM: Java HotSpot(TM) 64-Bit Server VM
Default Encoding: UTF-8
Language: es
Country: SV
--></g></svg>