<?xml version="1.0" encoding="UTF-8" standalone="no"?><svg xmlns="http://www.w3.org/2000/svg" xmlns:xlink="http://www.w3.org/1999/xlink" contentStyleType="text/css" height="651px" preserveAspectRatio="none" style="width:253px;height:651px;background:#FFFFFF;" version="1.1" viewBox="0 0 253 651" width="253px" zoomAndPan="magnify"><defs/><g><!--MD5=[fe9b79eeb773063b60029e9ad14aea1e]
class Restaurante--><g id="elem_Restaurante"><rect codeLine="1" fill="#F1F1F1" height="100.8281" id="Restaurante" rx="2.5" ry="2.5" style="stroke:#181818;stroke-width:0.5;" width="110" x="15" y="151"/><ellipse cx="30" cy="167" fill="#ADD1B2" rx="11" ry="11" style="stroke:#181818;stroke-width:1.0;"/><path d="M32.7656,162.875 Q32.9219,162.6563 33.1094,162.5469 Q33.2969,162.4375 33.5156,162.4375 Q33.8906,162.4375 34.125,162.7031 Q34.3594,162.9531 34.3594,163.5625 L34.3594,165.0156 Q34.3594,165.625 34.125,165.8906 Q33.8906,166.1563 33.5156,166.1563 Q33.1719,166.1563 32.9688,165.9531 Q32.7656,165.7656 32.6563,165.25 Q32.6094,164.8906 32.4219,164.7031 Q32.0938,164.3281 31.4844,164.1094 Q30.875,163.8906 30.25,163.8906 Q29.4844,163.8906 28.8438,164.2188 Q28.2188,164.5469 27.7188,165.2969 Q27.2344,166.0469 27.2344,167.0781 L27.2344,168.1719 Q27.2344,169.4063 28.125,170.2344 Q29.0156,171.0469 30.6094,171.0469 Q31.5469,171.0469 32.2031,170.7969 Q32.5938,170.6406 33.0156,170.2031 Q33.2813,169.9375 33.4219,169.8594 Q33.5781,169.7813 33.7813,169.7813 Q34.1094,169.7813 34.3594,170.0469 Q34.625,170.2969 34.625,170.6406 Q34.625,170.9844 34.2813,171.3906 Q33.7813,171.9688 32.9844,172.2969 Q31.9063,172.75 30.6094,172.75 Q29.0938,172.75 27.8906,172.125 Q26.9063,171.625 26.2188,170.5625 Q25.5313,169.4844 25.5313,168.2031 L25.5313,167.0469 Q25.5313,165.7188 26.1406,164.5781 Q26.7656,163.4219 27.8594,162.8125 Q28.9531,162.1875 30.1875,162.1875 Q30.9219,162.1875 31.5625,162.3594 Q32.2188,162.5156 32.7656,162.875 Z " fill="#000000"/><text fill="#000000" font-family="sans-serif" font-size="14" lengthAdjust="spacing" textLength="78" x="44" y="172.7285">Restaurante</text><line style="stroke:#181818;stroke-width:0.5;" x1="16" x2="124" y1="183" y2="183"/><ellipse cx="26" cy="197.3047" fill="none" rx="3" ry="3" style="stroke:#038048;stroke-width:1.0;"/><text fill="#000000" font-family="sans-serif" font-size="14" lengthAdjust="spacing" textLength="46" x="35" y="201.5332">Horario</text><ellipse cx="26" cy="214.9141" fill="none" rx="3" ry="3" style="stroke:#038048;stroke-width:1.0;"/><text fill="#000000" font-family="sans-serif" font-size="14" lengthAdjust="spacing" textLength="41" x="35" y="219.1426">Mesas</text><ellipse cx="26" cy="232.5234" fill="none" rx="3" ry="3" style="stroke:#038048;stroke-width:1.0;"/><text fill="#000000" font-family="sans-serif" font-size="14" lengthAdjust="spacing" textLength="53" x="35" y="236.752">Reserva</text><line style="stroke:#181818;stroke-width:0.5;" x1="16" x2="124" y1="243.8281" y2="243.8281"/></g><!--MD5=[20a748d5ee336a9a91751b0a3d4f0beb]
class Cliente--><g id="elem_Cliente"><rect codeLine="7" fill="#F1F1F1" height="65.6094" id="Cliente" rx="2.5" ry="2.5" style="stroke:#181818;stroke-width:0.5;" width="76" x="88" y="7"/><ellipse cx="103" cy="23" fill="#ADD1B2" rx="11" ry="11" style="stroke:#181818;stroke-width:1.0;"/><path d="M105.7656,18.875 Q105.9219,18.6563 106.1094,18.5469 Q106.2969,18.4375 106.5156,18.4375 Q106.8906,18.4375 107.125,18.7031 Q107.3594,18.9531 107.3594,19.5625 L107.3594,21.0156 Q107.3594,21.625 107.125,21.8906 Q106.8906,22.1563 106.5156,22.1563 Q106.1719,22.1563 105.9688,21.9531 Q105.7656,21.7656 105.6563,21.25 Q105.6094,20.8906 105.4219,20.7031 Q105.0938,20.3281 104.4844,20.1094 Q103.875,19.8906 103.25,19.8906 Q102.4844,19.8906 101.8438,20.2188 Q101.2188,20.5469 100.7188,21.2969 Q100.2344,22.0469 100.2344,23.0781 L100.2344,24.1719 Q100.2344,25.4063 101.125,26.2344 Q102.0156,27.0469 103.6094,27.0469 Q104.5469,27.0469 105.2031,26.7969 Q105.5938,26.6406 106.0156,26.2031 Q106.2813,25.9375 106.4219,25.8594 Q106.5781,25.7813 106.7813,25.7813 Q107.1094,25.7813 107.3594,26.0469 Q107.625,26.2969 107.625,26.6406 Q107.625,26.9844 107.2813,27.3906 Q106.7813,27.9688 105.9844,28.2969 Q104.9063,28.75 103.6094,28.75 Q102.0938,28.75 100.8906,28.125 Q99.9063,27.625 99.2188,26.5625 Q98.5313,25.4844 98.5313,24.2031 L98.5313,23.0469 Q98.5313,21.7188 99.1406,20.5781 Q99.7656,19.4219 100.8594,18.8125 Q101.9531,18.1875 103.1875,18.1875 Q103.9219,18.1875 104.5625,18.3594 Q105.2188,18.5156 105.7656,18.875 Z " fill="#000000"/><text fill="#000000" font-family="sans-serif" font-size="14" lengthAdjust="spacing" textLength="44" x="117" y="28.7285">Cliente</text><line style="stroke:#181818;stroke-width:0.5;" x1="89" x2="163" y1="39" y2="39"/><ellipse cx="99" cy="53.3047" fill="none" rx="3" ry="3" style="stroke:#038048;stroke-width:1.0;"/><text fill="#000000" font-family="sans-serif" font-size="14" lengthAdjust="spacing" textLength="49" x="108" y="57.5332">Nombre</text><line style="stroke:#181818;stroke-width:0.5;" x1="89" x2="163" y1="64.6094" y2="64.6094"/></g><!--MD5=[6ea9d6598d9760662639554c9857ab6b]
class Reserva--><g id="elem_Reserva"><rect codeLine="10" fill="#F1F1F1" height="136.0469" id="Reserva" rx="2.5" ry="2.5" style="stroke:#181818;stroke-width:0.5;" width="127" x="119.5" y="330"/><ellipse cx="153.4" cy="346" fill="#ADD1B2" rx="11" ry="11" style="stroke:#181818;stroke-width:1.0;"/><path d="M156.1656,341.875 Q156.3219,341.6563 156.5094,341.5469 Q156.6969,341.4375 156.9156,341.4375 Q157.2906,341.4375 157.525,341.7031 Q157.7594,341.9531 157.7594,342.5625 L157.7594,344.0156 Q157.7594,344.625 157.525,344.8906 Q157.2906,345.1563 156.9156,345.1563 Q156.5719,345.1563 156.3688,344.9531 Q156.1656,344.7656 156.0563,344.25 Q156.0094,343.8906 155.8219,343.7031 Q155.4938,343.3281 154.8844,343.1094 Q154.275,342.8906 153.65,342.8906 Q152.8844,342.8906 152.2438,343.2188 Q151.6188,343.5469 151.1188,344.2969 Q150.6344,345.0469 150.6344,346.0781 L150.6344,347.1719 Q150.6344,348.4063 151.525,349.2344 Q152.4156,350.0469 154.0094,350.0469 Q154.9469,350.0469 155.6031,349.7969 Q155.9938,349.6406 156.4156,349.2031 Q156.6813,348.9375 156.8219,348.8594 Q156.9781,348.7813 157.1813,348.7813 Q157.5094,348.7813 157.7594,349.0469 Q158.025,349.2969 158.025,349.6406 Q158.025,349.9844 157.6813,350.3906 Q157.1813,350.9688 156.3844,351.2969 Q155.3063,351.75 154.0094,351.75 Q152.4938,351.75 151.2906,351.125 Q150.3063,350.625 149.6188,349.5625 Q148.9313,348.4844 148.9313,347.2031 L148.9313,346.0469 Q148.9313,344.7188 149.5406,343.5781 Q150.1656,342.4219 151.2594,341.8125 Q152.3531,341.1875 153.5875,341.1875 Q154.3219,341.1875 154.9625,341.3594 Q155.6188,341.5156 156.1656,341.875 Z " fill="#000000"/><text fill="#000000" font-family="sans-serif" font-size="14" lengthAdjust="spacing" textLength="53" x="171.6" y="351.7285">Reserva</text><line style="stroke:#181818;stroke-width:0.5;" x1="120.5" x2="245.5" y1="362" y2="362"/><ellipse cx="130.5" cy="376.3047" fill="none" rx="3" ry="3" style="stroke:#038048;stroke-width:1.0;"/><text fill="#000000" font-family="sans-serif" font-size="14" lengthAdjust="spacing" textLength="13" x="139.5" y="380.5332">ID</text><ellipse cx="130.5" cy="393.9141" fill="none" rx="3" ry="3" style="stroke:#038048;stroke-width:1.0;"/><text fill="#000000" font-family="sans-serif" font-size="14" lengthAdjust="spacing" textLength="40" x="139.5" y="398.1426">Fecha</text><ellipse cx="130.5" cy="411.5234" fill="none" rx="3" ry="3" style="stroke:#038048;stroke-width:1.0;"/><text fill="#000000" font-family="sans-serif" font-size="14" lengthAdjust="spacing" textLength="30" x="139.5" y="415.752">Hora</text><ellipse cx="130.5" cy="429.1328" fill="none" rx="3" ry="3" style="stroke:#038048;stroke-width:1.0;"/><text fill="#000000" font-family="sans-serif" font-size="14" lengthAdjust="spacing" textLength="44" x="139.5" y="433.3613">Cliente</text><ellipse cx="130.5" cy="446.7422" fill="none" rx="3" ry="3" style="stroke:#038048;stroke-width:1.0;"/><text fill="#000000" font-family="sans-serif" font-size="14" lengthAdjust="spacing" textLength="101" x="139.5" y="450.9707">NumeroDeMesa</text><line style="stroke:#181818;stroke-width:0.5;" x1="120.5" x2="245.5" y1="458.0469" y2="458.0469"/></g><!--MD5=[e5925cd15ccd4863e9dc4bc9e690e485]
class Mesa--><g id="elem_Mesa"><rect codeLine="18" fill="#F1F1F1" height="100.8281" id="Mesa" rx="2.5" ry="2.5" style="stroke:#181818;stroke-width:0.5;" width="146" x="7" y="544"/><ellipse cx="58.75" cy="560" fill="#ADD1B2" rx="11" ry="11" style="stroke:#181818;stroke-width:1.0;"/><path d="M61.5156,555.875 Q61.6719,555.6563 61.8594,555.5469 Q62.0469,555.4375 62.2656,555.4375 Q62.6406,555.4375 62.875,555.7031 Q63.1094,555.9531 63.1094,556.5625 L63.1094,558.0156 Q63.1094,558.625 62.875,558.8906 Q62.6406,559.1563 62.2656,559.1563 Q61.9219,559.1563 61.7188,558.9531 Q61.5156,558.7656 61.4063,558.25 Q61.3594,557.8906 61.1719,557.7031 Q60.8438,557.3281 60.2344,557.1094 Q59.625,556.8906 59,556.8906 Q58.2344,556.8906 57.5938,557.2188 Q56.9688,557.5469 56.4688,558.2969 Q55.9844,559.0469 55.9844,560.0781 L55.9844,561.1719 Q55.9844,562.4063 56.875,563.2344 Q57.7656,564.0469 59.3594,564.0469 Q60.2969,564.0469 60.9531,563.7969 Q61.3438,563.6406 61.7656,563.2031 Q62.0313,562.9375 62.1719,562.8594 Q62.3281,562.7813 62.5313,562.7813 Q62.8594,562.7813 63.1094,563.0469 Q63.375,563.2969 63.375,563.6406 Q63.375,563.9844 63.0313,564.3906 Q62.5313,564.9688 61.7344,565.2969 Q60.6563,565.75 59.3594,565.75 Q57.8438,565.75 56.6406,565.125 Q55.6563,564.625 54.9688,563.5625 Q54.2813,562.4844 54.2813,561.2031 L54.2813,560.0469 Q54.2813,558.7188 54.8906,557.5781 Q55.5156,556.4219 56.6094,555.8125 Q57.7031,555.1875 58.9375,555.1875 Q59.6719,555.1875 60.3125,555.3594 Q60.9688,555.5156 61.5156,555.875 Z " fill="#000000"/><text fill="#000000" font-family="sans-serif" font-size="14" lengthAdjust="spacing" textLength="34" x="79.25" y="565.7285">Mesa</text><line style="stroke:#181818;stroke-width:0.5;" x1="8" x2="152" y1="576" y2="576"/><ellipse cx="18" cy="590.3047" fill="none" rx="3" ry="3" style="stroke:#038048;stroke-width:1.0;"/><text fill="#000000" font-family="sans-serif" font-size="14" lengthAdjust="spacing" textLength="101" x="27" y="594.5332">NumeroDeMesa</text><ellipse cx="18" cy="607.9141" fill="none" rx="3" ry="3" style="stroke:#038048;stroke-width:1.0;"/><text fill="#000000" font-family="sans-serif" font-size="14" lengthAdjust="spacing" textLength="68" x="27" y="612.1426">Capacidad</text><ellipse cx="18" cy="625.5234" fill="none" rx="3" ry="3" style="stroke:#038048;stroke-width:1.0;"/><text fill="#000000" font-family="sans-serif" font-size="14" lengthAdjust="spacing" textLength="120" x="27" y="629.752">PersonasSentadas</text><line style="stroke:#181818;stroke-width:0.5;" x1="8" x2="152" y1="636.8281" y2="636.8281"/></g><!--MD5=[e8943465adaf029d7ec749413d0d757e]
link Cliente to Restaurante--><g id="link_Cliente_Restaurante"><path codeLine="25" d="M87.86,71.99 C79.39,81.01 71.58,91.55 67,103 C61.06,117.86 59.91,135.04 60.83,150.79 " fill="none" id="Cliente-Restaurante" style="stroke:#181818;stroke-width:1.0;"/><text fill="#000000" font-family="sans-serif" font-size="13" lengthAdjust="spacing" textLength="88" x="68" y="117.4951">Solicita reserva</text></g><!--MD5=[a935eaf35c1e960023fa3a3731ebf8b7]
link Restaurante to Reserva--><g id="link_Restaurante_Reserva"><path codeLine="26" d="M98.81,252.08 C112.54,275.72 129.17,304.35 144.01,329.89 " fill="none" id="Restaurante-Reserva" style="stroke:#181818;stroke-width:1.0;"/><text fill="#000000" font-family="sans-serif" font-size="13" lengthAdjust="spacing" textLength="27" x="128" y="296.4951">Crea</text></g><!--MD5=[be0b9fdaa72320bae45b2231e3456389]
link Reserva to Mesa--><g id="link_Reserva_Mesa"><path codeLine="27" d="M147.41,466.21 C133.92,491.68 118.81,520.21 106.33,543.79 " fill="none" id="Reserva-Mesa" style="stroke:#181818;stroke-width:1.0;"/><text fill="#000000" font-family="sans-serif" font-size="13" lengthAdjust="spacing" textLength="38" x="133" y="510.4951">Ocupa</text></g><!--MD5=[54ace57d7220ccc0e614c112297e6b66]
link Restaurante to Mesa--><g id="link_Restaurante_Mesa"><path codeLine="28" d="M68.43,252.06 C67.07,305.05 65.79,391.5 69,466 C70.11,491.75 72.47,520.34 74.72,543.91 " fill="none" id="Restaurante-Mesa" style="stroke:#181818;stroke-width:1.0;"/><text fill="#000000" font-family="sans-serif" font-size="13" lengthAdjust="spacing" textLength="31" x="70" y="403.4951">Tiene</text></g><!--MD5=[55a59268352d08cbaca9c2ff75c5c8f9]
link Cliente to Reserva--><g id="link_Cliente_Reserva"><path codeLine="29" d="M147.72,73.25 C152.95,82.49 157.92,92.83 161,103 C183.83,178.31 187.17,269.21 186.2,329.8 " fill="none" id="Cliente-Reserva" style="stroke:#181818;stroke-width:1.0;stroke-dasharray:7.0,7.0;"/></g><!--MD5=[51048346e634e20ef85d5e679b0798c1]
@startuml Diagrama de clases
class Restaurante{
    + Horario
    + Mesas
    + Reserva
}

class Cliente{
    + Nombre
}
class Reserva{
    + ID
    + Fecha
    + Hora
    + Cliente
    + NumeroDeMesa
}

class Mesa{
    + NumeroDeMesa
    + Capacidad
    + PersonasSentadas
}


Cliente - - Restaurante: Solicita reserva 
Restaurante - - Reserva: Crea
Reserva - - Mesa: Ocupa
Restaurante - - Mesa:Tiene
Cliente .. Reserva



@enduml

PlantUML version 1.2022.7(Mon Aug 22 19:01:30 CEST 2022)
(GPL source distribution)
Java Runtime: Java(TM) SE Runtime Environment
JVM: Java HotSpot(TM) 64-Bit Server VM
Default Encoding: UTF-8
Language: es
Country: SV
--></g></svg>