<?xml version="1.0" encoding="UTF-8" standalone="no"?><svg xmlns="http://www.w3.org/2000/svg" xmlns:xlink="http://www.w3.org/1999/xlink" contentStyleType="text/css" height="470px" preserveAspectRatio="none" style="width:384px;height:470px;background:#FFFFFF;" version="1.1" viewBox="0 0 384 470" width="384px" zoomAndPan="magnify"><defs/><g><!--MD5=[f7809f017a887feea6abc8b4b90b7552]
class CFShoppingCenter--><g id="elem_CFShoppingCenter"><rect fill="#F1F1F1" height="48" id="CFShoppingCenter" rx="2.5" ry="2.5" style="stroke:#181818;stroke-width:0.5;" width="154" x="19.95" y="7"/><ellipse cx="34.95" cy="23" fill="#ADD1B2" rx="11" ry="11" style="stroke:#181818;stroke-width:1.0;"/><path d="M37.7156,18.875 Q37.8719,18.6563 38.0594,18.5469 Q38.2469,18.4375 38.4656,18.4375 Q38.8406,18.4375 39.075,18.7031 Q39.3094,18.9531 39.3094,19.5625 L39.3094,21.0156 Q39.3094,21.625 39.075,21.8906 Q38.8406,22.1563 38.4656,22.1563 Q38.1219,22.1563 37.9188,21.9531 Q37.7156,21.7656 37.6063,21.25 Q37.5594,20.8906 37.3719,20.7031 Q37.0438,20.3281 36.4344,20.1094 Q35.825,19.8906 35.2,19.8906 Q34.4344,19.8906 33.7938,20.2188 Q33.1688,20.5469 32.6688,21.2969 Q32.1844,22.0469 32.1844,23.0781 L32.1844,24.1719 Q32.1844,25.4063 33.075,26.2344 Q33.9656,27.0469 35.5594,27.0469 Q36.4969,27.0469 37.1531,26.7969 Q37.5438,26.6406 37.9656,26.2031 Q38.2313,25.9375 38.3719,25.8594 Q38.5281,25.7813 38.7313,25.7813 Q39.0594,25.7813 39.3094,26.0469 Q39.575,26.2969 39.575,26.6406 Q39.575,26.9844 39.2313,27.3906 Q38.7313,27.9688 37.9344,28.2969 Q36.8563,28.75 35.5594,28.75 Q34.0438,28.75 32.8406,28.125 Q31.8563,27.625 31.1688,26.5625 Q30.4813,25.4844 30.4813,24.2031 L30.4813,23.0469 Q30.4813,21.7188 31.0906,20.5781 Q31.7156,19.4219 32.8094,18.8125 Q33.9031,18.1875 35.1375,18.1875 Q35.8719,18.1875 36.5125,18.3594 Q37.1688,18.5156 37.7156,18.875 Z " fill="#000000"/><text fill="#000000" font-family="sans-serif" font-size="14" lengthAdjust="spacing" textLength="122" x="48.95" y="28.7285">CFShoppingCenter</text><line style="stroke:#181818;stroke-width:0.5;" x1="20.95" x2="172.95" y1="39" y2="39"/><line style="stroke:#181818;stroke-width:0.5;" x1="20.95" x2="172.95" y1="47" y2="47"/></g><!--MD5=[b25e6897497715e5a799d59d4053e611]
class CashRegister--><g id="elem_CashRegister"><rect fill="#F1F1F1" height="48" id="CashRegister" rx="2.5" ry="2.5" style="stroke:#181818;stroke-width:0.5;" width="118" x="52.95" y="415"/><ellipse cx="67.95" cy="431" fill="#ADD1B2" rx="11" ry="11" style="stroke:#181818;stroke-width:1.0;"/><path d="M70.7156,426.875 Q70.8719,426.6563 71.0594,426.5469 Q71.2469,426.4375 71.4656,426.4375 Q71.8406,426.4375 72.075,426.7031 Q72.3094,426.9531 72.3094,427.5625 L72.3094,429.0156 Q72.3094,429.625 72.075,429.8906 Q71.8406,430.1563 71.4656,430.1563 Q71.1219,430.1563 70.9188,429.9531 Q70.7156,429.7656 70.6063,429.25 Q70.5594,428.8906 70.3719,428.7031 Q70.0438,428.3281 69.4344,428.1094 Q68.825,427.8906 68.2,427.8906 Q67.4344,427.8906 66.7938,428.2188 Q66.1688,428.5469 65.6688,429.2969 Q65.1844,430.0469 65.1844,431.0781 L65.1844,432.1719 Q65.1844,433.4063 66.075,434.2344 Q66.9656,435.0469 68.5594,435.0469 Q69.4969,435.0469 70.1531,434.7969 Q70.5438,434.6406 70.9656,434.2031 Q71.2313,433.9375 71.3719,433.8594 Q71.5281,433.7813 71.7313,433.7813 Q72.0594,433.7813 72.3094,434.0469 Q72.575,434.2969 72.575,434.6406 Q72.575,434.9844 72.2313,435.3906 Q71.7313,435.9688 70.9344,436.2969 Q69.8563,436.75 68.5594,436.75 Q67.0438,436.75 65.8406,436.125 Q64.8563,435.625 64.1688,434.5625 Q63.4813,433.4844 63.4813,432.2031 L63.4813,431.0469 Q63.4813,429.7188 64.0906,428.5781 Q64.7156,427.4219 65.8094,426.8125 Q66.9031,426.1875 68.1375,426.1875 Q68.8719,426.1875 69.5125,426.3594 Q70.1688,426.5156 70.7156,426.875 Z " fill="#000000"/><text fill="#000000" font-family="sans-serif" font-size="14" lengthAdjust="spacing" textLength="86" x="81.95" y="436.7285">CashRegister</text><line style="stroke:#181818;stroke-width:0.5;" x1="53.95" x2="169.95" y1="447" y2="447"/><line style="stroke:#181818;stroke-width:0.5;" x1="53.95" x2="169.95" y1="455" y2="455"/></g><!--MD5=[2ce0c9fb7f55b1e256ab28a8ea6b25ec]
class Customer--><g id="elem_Customer"><rect fill="#F1F1F1" height="48" id="Customer" rx="2.5" ry="2.5" style="stroke:#181818;stroke-width:0.5;" width="93" x="50.45" y="133"/><ellipse cx="65.45" cy="149" fill="#ADD1B2" rx="11" ry="11" style="stroke:#181818;stroke-width:1.0;"/><path d="M68.2156,144.875 Q68.3719,144.6563 68.5594,144.5469 Q68.7469,144.4375 68.9656,144.4375 Q69.3406,144.4375 69.575,144.7031 Q69.8094,144.9531 69.8094,145.5625 L69.8094,147.0156 Q69.8094,147.625 69.575,147.8906 Q69.3406,148.1563 68.9656,148.1563 Q68.6219,148.1563 68.4188,147.9531 Q68.2156,147.7656 68.1063,147.25 Q68.0594,146.8906 67.8719,146.7031 Q67.5438,146.3281 66.9344,146.1094 Q66.325,145.8906 65.7,145.8906 Q64.9344,145.8906 64.2938,146.2188 Q63.6688,146.5469 63.1688,147.2969 Q62.6844,148.0469 62.6844,149.0781 L62.6844,150.1719 Q62.6844,151.4063 63.575,152.2344 Q64.4656,153.0469 66.0594,153.0469 Q66.9969,153.0469 67.6531,152.7969 Q68.0438,152.6406 68.4656,152.2031 Q68.7313,151.9375 68.8719,151.8594 Q69.0281,151.7813 69.2313,151.7813 Q69.5594,151.7813 69.8094,152.0469 Q70.075,152.2969 70.075,152.6406 Q70.075,152.9844 69.7313,153.3906 Q69.2313,153.9688 68.4344,154.2969 Q67.3563,154.75 66.0594,154.75 Q64.5438,154.75 63.3406,154.125 Q62.3563,153.625 61.6688,152.5625 Q60.9813,151.4844 60.9813,150.2031 L60.9813,149.0469 Q60.9813,147.7188 61.5906,146.5781 Q62.2156,145.4219 63.3094,144.8125 Q64.4031,144.1875 65.6375,144.1875 Q66.3719,144.1875 67.0125,144.3594 Q67.6688,144.5156 68.2156,144.875 Z " fill="#000000"/><text fill="#000000" font-family="sans-serif" font-size="14" lengthAdjust="spacing" textLength="61" x="79.45" y="154.7285">Customer</text><line style="stroke:#181818;stroke-width:0.5;" x1="51.45" x2="142.45" y1="165" y2="165"/><line style="stroke:#181818;stroke-width:0.5;" x1="51.45" x2="142.45" y1="173" y2="173"/></g><!--MD5=[463a8c8022f4893af718bd3b5ca68efc]
class Cashiers--><g id="elem_Cashiers"><rect fill="#F1F1F1" height="48" id="Cashiers" rx="2.5" ry="2.5" style="stroke:#181818;stroke-width:0.5;" width="88" x="261.95" y="211"/><ellipse cx="276.95" cy="227" fill="#ADD1B2" rx="11" ry="11" style="stroke:#181818;stroke-width:1.0;"/><path d="M279.7156,222.875 Q279.8719,222.6563 280.0594,222.5469 Q280.2469,222.4375 280.4656,222.4375 Q280.8406,222.4375 281.075,222.7031 Q281.3094,222.9531 281.3094,223.5625 L281.3094,225.0156 Q281.3094,225.625 281.075,225.8906 Q280.8406,226.1563 280.4656,226.1563 Q280.1219,226.1563 279.9188,225.9531 Q279.7156,225.7656 279.6063,225.25 Q279.5594,224.8906 279.3719,224.7031 Q279.0438,224.3281 278.4344,224.1094 Q277.825,223.8906 277.2,223.8906 Q276.4344,223.8906 275.7938,224.2188 Q275.1688,224.5469 274.6688,225.2969 Q274.1844,226.0469 274.1844,227.0781 L274.1844,228.1719 Q274.1844,229.4063 275.075,230.2344 Q275.9656,231.0469 277.5594,231.0469 Q278.4969,231.0469 279.1531,230.7969 Q279.5438,230.6406 279.9656,230.2031 Q280.2313,229.9375 280.3719,229.8594 Q280.5281,229.7813 280.7313,229.7813 Q281.0594,229.7813 281.3094,230.0469 Q281.575,230.2969 281.575,230.6406 Q281.575,230.9844 281.2313,231.3906 Q280.7313,231.9688 279.9344,232.2969 Q278.8563,232.75 277.5594,232.75 Q276.0438,232.75 274.8406,232.125 Q273.8563,231.625 273.1688,230.5625 Q272.4813,229.4844 272.4813,228.2031 L272.4813,227.0469 Q272.4813,225.7188 273.0906,224.5781 Q273.7156,223.4219 274.8094,222.8125 Q275.9031,222.1875 277.1375,222.1875 Q277.8719,222.1875 278.5125,222.3594 Q279.1688,222.5156 279.7156,222.875 Z " fill="#000000"/><text fill="#000000" font-family="sans-serif" font-size="14" lengthAdjust="spacing" textLength="56" x="290.95" y="232.7285">Cashiers</text><line style="stroke:#181818;stroke-width:0.5;" x1="262.95" x2="348.95" y1="243" y2="243"/><line style="stroke:#181818;stroke-width:0.5;" x1="262.95" x2="348.95" y1="251" y2="251"/></g><!--MD5=[15b0de36700cf8bf422172734e699e19]
class Queue--><g id="elem_Queue"><rect fill="#F1F1F1" height="48" id="Queue" rx="2.5" ry="2.5" style="stroke:#181818;stroke-width:0.5;" width="75" x="194.45" y="289"/><ellipse cx="209.45" cy="305" fill="#ADD1B2" rx="11" ry="11" style="stroke:#181818;stroke-width:1.0;"/><path d="M212.2156,300.875 Q212.3719,300.6563 212.5594,300.5469 Q212.7469,300.4375 212.9656,300.4375 Q213.3406,300.4375 213.575,300.7031 Q213.8094,300.9531 213.8094,301.5625 L213.8094,303.0156 Q213.8094,303.625 213.575,303.8906 Q213.3406,304.1563 212.9656,304.1563 Q212.6219,304.1563 212.4188,303.9531 Q212.2156,303.7656 212.1063,303.25 Q212.0594,302.8906 211.8719,302.7031 Q211.5438,302.3281 210.9344,302.1094 Q210.325,301.8906 209.7,301.8906 Q208.9344,301.8906 208.2938,302.2188 Q207.6688,302.5469 207.1688,303.2969 Q206.6844,304.0469 206.6844,305.0781 L206.6844,306.1719 Q206.6844,307.4063 207.575,308.2344 Q208.4656,309.0469 210.0594,309.0469 Q210.9969,309.0469 211.6531,308.7969 Q212.0438,308.6406 212.4656,308.2031 Q212.7313,307.9375 212.8719,307.8594 Q213.0281,307.7813 213.2313,307.7813 Q213.5594,307.7813 213.8094,308.0469 Q214.075,308.2969 214.075,308.6406 Q214.075,308.9844 213.7313,309.3906 Q213.2313,309.9688 212.4344,310.2969 Q211.3563,310.75 210.0594,310.75 Q208.5438,310.75 207.3406,310.125 Q206.3563,309.625 205.6688,308.5625 Q204.9813,307.4844 204.9813,306.2031 L204.9813,305.0469 Q204.9813,303.7188 205.5906,302.5781 Q206.2156,301.4219 207.3094,300.8125 Q208.4031,300.1875 209.6375,300.1875 Q210.3719,300.1875 211.0125,300.3594 Q211.6688,300.5156 212.2156,300.875 Z " fill="#000000"/><text fill="#000000" font-family="sans-serif" font-size="14" lengthAdjust="spacing" textLength="43" x="223.45" y="310.7285">Queue</text><line style="stroke:#181818;stroke-width:0.5;" x1="195.45" x2="268.45" y1="321" y2="321"/><line style="stroke:#181818;stroke-width:0.5;" x1="195.45" x2="268.45" y1="329" y2="329"/></g><!--MD5=[2dd62e1971004b218edaccad8b8c8e1c]
link CFShoppingCenter to CashRegister--><g id="link_CFShoppingCenter_CashRegister"><path codeLine="2" d="M78.63,55.08 C64.01,74.69 44.17,104.18 32.95,133 C12.51,185.51 6,204.16 18.95,259 C33.23,319.5 72.42,382.16 95.11,414.89 " fill="none" id="CFShoppingCenter-CashRegister" style="stroke:#181818;stroke-width:1.0;"/><text fill="#000000" font-family="sans-serif" font-size="13" lengthAdjust="spacing" textLength="53" x="19.95" y="240.4951">manages</text></g><!--MD5=[63f7c04e4734f311be68b3a851ceeccf]
link CFShoppingCenter to Customer--><g id="link_CFShoppingCenter_Customer"><path codeLine="3" d="M96.95,55.03 C96.95,77.17 96.95,110.44 96.95,132.67 " fill="none" id="CFShoppingCenter-Customer" style="stroke:#181818;stroke-width:1.0;"/><text fill="#000000" font-family="sans-serif" font-size="13" lengthAdjust="spacing" textLength="47" x="97.95" y="99.4951">receives</text></g><!--MD5=[936fadab9f9fa2435784873d53e3c458]
link CFShoppingCenter to Cashiers--><g id="link_CFShoppingCenter_Cashiers"><path codeLine="4" d="M122.05,55.08 C132.04,64.32 143.59,75.11 153.95,85 C200.05,129.02 253.04,181.37 282.7,210.83 " fill="none" id="CFShoppingCenter-Cashiers" style="stroke:#181818;stroke-width:1.0;"/><text fill="#000000" font-family="sans-serif" font-size="13" lengthAdjust="spacing" textLength="21" x="172.95" y="99.4951">has</text></g><!--MD5=[508e4334cae32d9df0026e157b7448ec]
link Cashiers to CashRegister--><g id="link_Cashiers_CashRegister"><path codeLine="6" d="M314.5,259.16 C324.64,291.02 336.89,348.55 308.95,385 C292.14,406.93 222.67,421.81 170.95,430.09 " fill="none" id="Cashiers-CashRegister" style="stroke:#181818;stroke-width:1.0;"/><text fill="#000000" font-family="sans-serif" font-size="13" lengthAdjust="spacing" textLength="50" x="326.95" y="318.4951">operates</text></g><!--MD5=[19430e3cdebefcdf6d92dbe38358d6fa]
link Customer to Queue--><g id="link_Customer_Queue"><path codeLine="8" d="M117.16,181.06 C142.61,210.09 186.08,259.68 211.6,288.79 " fill="none" id="Customer-Queue" style="stroke:#181818;stroke-width:1.0;"/><text fill="#000000" font-family="sans-serif" font-size="13" lengthAdjust="spacing" textLength="44" x="185.95" y="240.4951">waits in</text></g><!--MD5=[a1567f86c5d4db9acaaef4372f4b827b]
link Queue to CashRegister--><g id="link_Queue_CashRegister"><path codeLine="10" d="M209.66,337.03 C188.24,359.17 156.04,392.44 134.53,414.67 " fill="none" id="Queue-CashRegister" style="stroke:#181818;stroke-width:1.0;"/><text fill="#000000" font-family="sans-serif" font-size="13" lengthAdjust="spacing" textLength="119" x="180.95" y="381.4951">directs customers to</text></g><!--MD5=[5c0b5a94423be9d0d5ab918d5a6834a2]
link Customer to CashRegister--><g id="link_Customer_CashRegister"><path codeLine="11" d="M91.91,181.27 C85.23,215.52 75.13,281.44 82.95,337 C86.79,364.28 96.19,394.52 103.25,414.73 " fill="none" id="Customer-CashRegister" style="stroke:#181818;stroke-width:1.0;"/><text fill="#000000" font-family="sans-serif" font-size="13" lengthAdjust="spacing" textLength="92" x="83.95" y="318.4951">is processed by</text></g><!--MD5=[a5a780b71a3cbac126f40fc58196b4da]
@startuml diagrama de clases

CFShoppingCenter - - CashRegister: manages
CFShoppingCenter  - - Customer: receives
CFShoppingCenter  - - Cashiers: has

Cashiers - - CashRegister: operates

Customer - - Queue: waits in

Queue - - CashRegister: directs customers to
Customer - - CashRegister: is processed by

@endtuml

PlantUML version 1.2022.7(Mon Aug 22 19:01:30 CEST 2022)
(GPL source distribution)
Java Runtime: Java(TM) SE Runtime Environment
JVM: Java HotSpot(TM) 64-Bit Server VM
Default Encoding: UTF-8
Language: es
Country: SV
--></g></svg>